M48
;DRILL file {KiCad 4.0.0-rc2-stable} date Tue 17 Nov 2015 13:54:08 BRT
;FORMAT={3:3/ absolute / metric / keep zeros}
FMAT,2
METRIC,TZ
T1C0.700
T2C1.016
%
G90
G05
M71
T1
X158750Y-030480
X158750Y-039370
X186690Y-030480
X186690Y-039370
X193040Y-031980
X193040Y-036830
X214630Y-030480
X214630Y-039370
X220980Y-031980
X220980Y-036830
X242570Y-030480
X242570Y-039370
X248920Y-031980
X248920Y-036830
X259080Y-036830
X261740Y-039490
T2
X152400Y-030480
X152400Y-033020
X152400Y-035560
X152400Y-038100
X152400Y-040640
X157480Y-053340
X157480Y-055880
X157480Y-058420
X160020Y-053340
X160020Y-055880
X160020Y-058420
X162560Y-053340
X162560Y-055880
X162560Y-058420
X165100Y-053340
X165100Y-055880
X165100Y-058420
X167640Y-053340
X167640Y-055880
X167640Y-058420
X170180Y-053340
X170180Y-055880
X170180Y-058420
X172720Y-053340
X172720Y-055880
X172720Y-058420
X175260Y-053340
X175260Y-055880
X175260Y-058420
X185420Y-053340
X185420Y-055880
X185420Y-058420
X187960Y-053340
X187960Y-055880
X187960Y-058420
X190500Y-053340
X190500Y-055880
X190500Y-058420
X193040Y-053340
X193040Y-055880
X193040Y-058420
X195580Y-053340
X195580Y-055880
X195580Y-058420
X198120Y-053340
X198120Y-055880
X198120Y-058420
X200660Y-053340
X200660Y-055880
X200660Y-058420
X203200Y-053340
X203200Y-055880
X203200Y-058420
X213360Y-053340
X213360Y-055880
X213360Y-058420
X215900Y-053340
X215900Y-055880
X215900Y-058420
X218440Y-053340
X218440Y-055880
X218440Y-058420
X220980Y-053340
X220980Y-055880
X220980Y-058420
X223520Y-053340
X223520Y-055880
X223520Y-058420
X226060Y-053340
X226060Y-055880
X226060Y-058420
X228600Y-053340
X228600Y-055880
X228600Y-058420
X231140Y-053340
X231140Y-055880
X231140Y-058420
X241300Y-053340
X241300Y-055880
X241300Y-058420
X243840Y-053340
X243840Y-055880
X243840Y-058420
X246380Y-053340
X246380Y-055880
X246380Y-058420
X248920Y-053340
X248920Y-055880
X248920Y-058420
X251460Y-053340
X251460Y-055880
X251460Y-058420
X254000Y-053340
X254000Y-055880
X254000Y-058420
X256540Y-053340
X256540Y-055880
X256540Y-058420
X259080Y-053340
X259080Y-055880
X259080Y-058420
X264160Y-030480
X264160Y-033020
X264160Y-035560
X264160Y-038100
X264160Y-040640
X264160Y-053340
X264160Y-055880
T0
M30
