G04 #@! TF.FileFunction,Copper,L1,Top,Signal*
%FSLAX46Y46*%
G04 Gerber Fmt 4.6, Leading zero omitted, Abs format (unit mm)*
G04 Created by KiCad (PCBNEW 4.0.0-rc2-stable) date Tue 17 Nov 2015 13:54:05 BRT*
%MOMM*%
G01*
G04 APERTURE LIST*
%ADD10C,0.100000*%
%ADD11R,1.500000X1.250000*%
%ADD12R,1.250000X1.500000*%
%ADD13R,1.727200X1.727200*%
%ADD14O,1.727200X1.727200*%
%ADD15R,1.727200X2.032000*%
%ADD16O,1.727200X2.032000*%
%ADD17R,2.032000X1.727200*%
%ADD18O,2.032000X1.727200*%
%ADD19R,0.508000X1.143000*%
%ADD20R,2.032000X2.032000*%
%ADD21O,2.032000X2.032000*%
%ADD22C,1.300000*%
%ADD23C,1.000000*%
%ADD24C,0.350000*%
%ADD25C,0.300000*%
G04 APERTURE END LIST*
D10*
D11*
X217150000Y-36830000D03*
X214650000Y-36830000D03*
X161290000Y-36830000D03*
X158790000Y-36830000D03*
X189190000Y-36830000D03*
X186690000Y-36830000D03*
X245090000Y-36830000D03*
X242590000Y-36830000D03*
D12*
X208280000Y-58400000D03*
X208280000Y-55900000D03*
X153670000Y-58380000D03*
X153670000Y-55880000D03*
X180340000Y-58400000D03*
X180340000Y-55900000D03*
X236220000Y-58400000D03*
X236220000Y-55900000D03*
D13*
X157480000Y-53340000D03*
D14*
X157480000Y-55880000D03*
X160020000Y-53340000D03*
X160020000Y-55880000D03*
X162560000Y-53340000D03*
X162560000Y-55880000D03*
X165100000Y-53340000D03*
X165100000Y-55880000D03*
X167640000Y-53340000D03*
X167640000Y-55880000D03*
X170180000Y-53340000D03*
X170180000Y-55880000D03*
X172720000Y-53340000D03*
X172720000Y-55880000D03*
X175260000Y-53340000D03*
X175260000Y-55880000D03*
D15*
X157480000Y-58420000D03*
D16*
X160020000Y-58420000D03*
X162560000Y-58420000D03*
X165100000Y-58420000D03*
X167640000Y-58420000D03*
X170180000Y-58420000D03*
X172720000Y-58420000D03*
X175260000Y-58420000D03*
D13*
X185420000Y-53340000D03*
D14*
X185420000Y-55880000D03*
X187960000Y-53340000D03*
X187960000Y-55880000D03*
X190500000Y-53340000D03*
X190500000Y-55880000D03*
X193040000Y-53340000D03*
X193040000Y-55880000D03*
X195580000Y-53340000D03*
X195580000Y-55880000D03*
X198120000Y-53340000D03*
X198120000Y-55880000D03*
X200660000Y-53340000D03*
X200660000Y-55880000D03*
X203200000Y-53340000D03*
X203200000Y-55880000D03*
D15*
X185420000Y-58420000D03*
D16*
X187960000Y-58420000D03*
X190500000Y-58420000D03*
X193040000Y-58420000D03*
X195580000Y-58420000D03*
X198120000Y-58420000D03*
X200660000Y-58420000D03*
X203200000Y-58420000D03*
D17*
X152400000Y-30480000D03*
D18*
X152400000Y-33020000D03*
X152400000Y-35560000D03*
X152400000Y-38100000D03*
X152400000Y-40640000D03*
D13*
X213360000Y-53340000D03*
D14*
X213360000Y-55880000D03*
X215900000Y-53340000D03*
X215900000Y-55880000D03*
X218440000Y-53340000D03*
X218440000Y-55880000D03*
X220980000Y-53340000D03*
X220980000Y-55880000D03*
X223520000Y-53340000D03*
X223520000Y-55880000D03*
X226060000Y-53340000D03*
X226060000Y-55880000D03*
X228600000Y-53340000D03*
X228600000Y-55880000D03*
X231140000Y-53340000D03*
X231140000Y-55880000D03*
D17*
X264160000Y-30480000D03*
D18*
X264160000Y-33020000D03*
X264160000Y-35560000D03*
X264160000Y-38100000D03*
X264160000Y-40640000D03*
D15*
X213360000Y-58420000D03*
D16*
X215900000Y-58420000D03*
X218440000Y-58420000D03*
X220980000Y-58420000D03*
X223520000Y-58420000D03*
X226060000Y-58420000D03*
X228600000Y-58420000D03*
X231140000Y-58420000D03*
D13*
X241300000Y-53340000D03*
D14*
X241300000Y-55880000D03*
X243840000Y-53340000D03*
X243840000Y-55880000D03*
X246380000Y-53340000D03*
X246380000Y-55880000D03*
X248920000Y-53340000D03*
X248920000Y-55880000D03*
X251460000Y-53340000D03*
X251460000Y-55880000D03*
X254000000Y-53340000D03*
X254000000Y-55880000D03*
X256540000Y-53340000D03*
X256540000Y-55880000D03*
X259080000Y-53340000D03*
X259080000Y-55880000D03*
D15*
X241300000Y-58420000D03*
D16*
X243840000Y-58420000D03*
X246380000Y-58420000D03*
X248920000Y-58420000D03*
X251460000Y-58420000D03*
X254000000Y-58420000D03*
X256540000Y-58420000D03*
X259080000Y-58420000D03*
D19*
X162560000Y-39370000D03*
X165100000Y-39370000D03*
X166370000Y-39370000D03*
X167640000Y-39370000D03*
X168910000Y-39370000D03*
X170180000Y-39370000D03*
X171450000Y-39370000D03*
X171450000Y-45720000D03*
X170180000Y-45720000D03*
X168910000Y-45720000D03*
X167640000Y-45720000D03*
X166370000Y-45720000D03*
X165100000Y-45720000D03*
X163830000Y-45720000D03*
X162560000Y-45720000D03*
X163830000Y-39370000D03*
X190500000Y-39370000D03*
X193040000Y-39370000D03*
X194310000Y-39370000D03*
X195580000Y-39370000D03*
X196850000Y-39370000D03*
X198120000Y-39370000D03*
X199390000Y-39370000D03*
X199390000Y-45720000D03*
X198120000Y-45720000D03*
X196850000Y-45720000D03*
X195580000Y-45720000D03*
X194310000Y-45720000D03*
X193040000Y-45720000D03*
X191770000Y-45720000D03*
X190500000Y-45720000D03*
X191770000Y-39370000D03*
X218440000Y-39370000D03*
X220980000Y-39370000D03*
X222250000Y-39370000D03*
X223520000Y-39370000D03*
X224790000Y-39370000D03*
X226060000Y-39370000D03*
X227330000Y-39370000D03*
X227330000Y-45720000D03*
X226060000Y-45720000D03*
X224790000Y-45720000D03*
X223520000Y-45720000D03*
X222250000Y-45720000D03*
X220980000Y-45720000D03*
X219710000Y-45720000D03*
X218440000Y-45720000D03*
X219710000Y-39370000D03*
X246380000Y-39370000D03*
X248920000Y-39370000D03*
X250190000Y-39370000D03*
X251460000Y-39370000D03*
X252730000Y-39370000D03*
X254000000Y-39370000D03*
X255270000Y-39370000D03*
X255270000Y-45720000D03*
X254000000Y-45720000D03*
X252730000Y-45720000D03*
X251460000Y-45720000D03*
X250190000Y-45720000D03*
X248920000Y-45720000D03*
X247650000Y-45720000D03*
X246380000Y-45720000D03*
X247650000Y-39370000D03*
D20*
X264160000Y-55880000D03*
D21*
X264160000Y-53340000D03*
D22*
X242570000Y-30480000D03*
X242570000Y-39370000D03*
X214630000Y-30480000D03*
X214630000Y-39370000D03*
X186690000Y-30480000D03*
X186690000Y-39370000D03*
X158750000Y-30480000D03*
X158750000Y-39370000D03*
X259080000Y-36830000D03*
X261739658Y-39489658D03*
X193040000Y-31980010D03*
X193040000Y-36830000D03*
X220980000Y-31980010D03*
X220980000Y-36830000D03*
X248920000Y-31980010D03*
X248920000Y-36830000D03*
D23*
X226060000Y-30480000D02*
X242570000Y-30480000D01*
X242570000Y-30480000D02*
X254000000Y-30480000D01*
X245090000Y-36830000D02*
X245090000Y-38455000D01*
X245090000Y-38455000D02*
X244175000Y-39370000D01*
X244175000Y-39370000D02*
X242570000Y-39370000D01*
X198120000Y-30480000D02*
X214630000Y-30480000D01*
X214630000Y-30480000D02*
X226060000Y-30480000D01*
X217150000Y-36830000D02*
X217150000Y-38455000D01*
X217150000Y-38455000D02*
X216235000Y-39370000D01*
X216235000Y-39370000D02*
X214630000Y-39370000D01*
X170180000Y-30480000D02*
X186690000Y-30480000D01*
X186690000Y-30480000D02*
X198120000Y-30480000D01*
X189190000Y-36830000D02*
X189190000Y-38455000D01*
X189190000Y-38455000D02*
X188275000Y-39370000D01*
X188275000Y-39370000D02*
X186690000Y-39370000D01*
X161290000Y-36830000D02*
X161290000Y-38455000D01*
X161290000Y-38455000D02*
X160375000Y-39370000D01*
X160375000Y-39370000D02*
X158750000Y-39370000D01*
X162560000Y-39370000D02*
X162560000Y-38100000D01*
X162560000Y-38100000D02*
X161290000Y-36830000D01*
X246380000Y-39370000D02*
X246380000Y-38120000D01*
X246380000Y-38120000D02*
X245090000Y-36830000D01*
X218440000Y-39370000D02*
X218440000Y-38120000D01*
X218440000Y-38120000D02*
X217150000Y-36830000D01*
X190500000Y-39370000D02*
X190500000Y-38140000D01*
X190500000Y-38140000D02*
X189190000Y-36830000D01*
X254000000Y-30480000D02*
X264160000Y-30480000D01*
X254000000Y-39370000D02*
X254000000Y-30480000D01*
X226060000Y-39370000D02*
X226060000Y-30480000D01*
X198120000Y-39370000D02*
X198120000Y-30480000D01*
X152552400Y-30480000D02*
X170180000Y-30480000D01*
X170180000Y-39370000D02*
X170180000Y-30480000D01*
X152400000Y-30480000D02*
X152552400Y-30480000D01*
X264160000Y-50800000D02*
X262890000Y-52070000D01*
X262890000Y-52070000D02*
X259080000Y-55880000D01*
X264160000Y-53340000D02*
X262890000Y-52070000D01*
X264160000Y-40640000D02*
X264160000Y-50800000D01*
X152400000Y-40640000D02*
X152400000Y-54610000D01*
X152400000Y-54610000D02*
X153670000Y-55880000D01*
X259080000Y-55880000D02*
X175224190Y-55880000D01*
X175224190Y-55880000D02*
X153670000Y-55880000D01*
X264160000Y-55880000D02*
X261620000Y-55880000D01*
X261620000Y-55880000D02*
X259080000Y-58420000D01*
X153670000Y-58380000D02*
X259040000Y-58380000D01*
X259040000Y-58380000D02*
X259080000Y-58420000D01*
D24*
X163830000Y-39370000D02*
X163830000Y-42679498D01*
X163830000Y-42679498D02*
X157480000Y-49029498D01*
X157480000Y-49029498D02*
X157480000Y-52126400D01*
X157480000Y-52126400D02*
X157480000Y-53340000D01*
X162560000Y-45720000D02*
X162560000Y-50800000D01*
X162560000Y-50800000D02*
X160020000Y-53340000D01*
X163830000Y-45720000D02*
X163830000Y-52070000D01*
X163830000Y-52070000D02*
X162560000Y-53340000D01*
X165100000Y-45720000D02*
X165100000Y-53340000D01*
X166370000Y-45720000D02*
X166370000Y-52070000D01*
X166370000Y-52070000D02*
X167640000Y-53340000D01*
X167640000Y-45720000D02*
X167640000Y-50800000D01*
X167640000Y-50800000D02*
X170180000Y-53340000D01*
X168910000Y-45720000D02*
X168910000Y-49530000D01*
X168910000Y-49530000D02*
X172720000Y-53340000D01*
X170180000Y-45720000D02*
X170180000Y-48260000D01*
X170180000Y-48260000D02*
X175260000Y-53340000D01*
X191770000Y-39370000D02*
X191770000Y-42679498D01*
X191770000Y-42679498D02*
X185420000Y-49029498D01*
X185420000Y-49029498D02*
X185420000Y-52126400D01*
X185420000Y-52126400D02*
X185420000Y-53340000D01*
X190500000Y-45720000D02*
X190500000Y-50800000D01*
X190500000Y-50800000D02*
X187960000Y-53340000D01*
X191770000Y-45720000D02*
X191770000Y-52070000D01*
X191770000Y-52070000D02*
X190500000Y-53340000D01*
X193040000Y-45720000D02*
X193040000Y-53340000D01*
X194310000Y-45720000D02*
X194310000Y-52070000D01*
X194310000Y-52070000D02*
X195580000Y-53340000D01*
X195580000Y-45720000D02*
X195580000Y-50800000D01*
X195580000Y-50800000D02*
X198120000Y-53340000D01*
X196850000Y-45720000D02*
X196850000Y-49530000D01*
X196850000Y-49530000D02*
X200660000Y-53340000D01*
X198120000Y-45720000D02*
X198120000Y-48260000D01*
X198120000Y-48260000D02*
X203200000Y-53340000D01*
X252730000Y-37364035D02*
X252730000Y-38448500D01*
X249209954Y-33843989D02*
X252730000Y-37364035D01*
X232628047Y-41209989D02*
X239994046Y-33843989D01*
X226312489Y-41209989D02*
X232628047Y-41209989D01*
X224790000Y-39370000D02*
X224790000Y-39687500D01*
X252730000Y-38448500D02*
X252730000Y-39370000D01*
X224790000Y-39687500D02*
X226312489Y-41209989D01*
X239994046Y-33843989D02*
X249209954Y-33843989D01*
X224790000Y-38448500D02*
X224790000Y-39370000D01*
X221269954Y-33843989D02*
X224790000Y-37364035D01*
X212054046Y-33843989D02*
X221269954Y-33843989D01*
X224790000Y-37364035D02*
X224790000Y-38448500D01*
X204688047Y-41209989D02*
X212054046Y-33843989D01*
X196850000Y-39370000D02*
X196850000Y-39687500D01*
X198372489Y-41209989D02*
X204688047Y-41209989D01*
X196850000Y-39687500D02*
X198372489Y-41209989D01*
X196850000Y-38448500D02*
X196850000Y-39370000D01*
X196850000Y-37364035D02*
X196850000Y-38448500D01*
X170432489Y-41209989D02*
X175732047Y-41209989D01*
X193329954Y-33843989D02*
X196850000Y-37364035D01*
X183098046Y-33843989D02*
X193329954Y-33843989D01*
X168910000Y-39687500D02*
X170432489Y-41209989D01*
X168910000Y-39370000D02*
X168910000Y-39687500D01*
X175732047Y-41209989D02*
X183098046Y-33843989D01*
X168910000Y-37898070D02*
X168910000Y-38448500D01*
X164031930Y-33020000D02*
X168910000Y-37898070D01*
X152400000Y-33020000D02*
X164031930Y-33020000D01*
X168910000Y-38448500D02*
X168910000Y-39370000D01*
X261620000Y-36830000D02*
X261620000Y-34194000D01*
X261620000Y-34194000D02*
X262794000Y-33020000D01*
X262794000Y-33020000D02*
X264160000Y-33020000D01*
X257240010Y-41209990D02*
X261620000Y-36830000D01*
X253299990Y-41209990D02*
X257240010Y-41209990D01*
X252730000Y-40640000D02*
X253299990Y-41209990D01*
X252730000Y-39370000D02*
X252730000Y-40640000D01*
X196850000Y-41910000D02*
X204978000Y-41910000D01*
X248920000Y-34544000D02*
X251460000Y-37084000D01*
X223520000Y-37084000D02*
X223520000Y-40640000D01*
X232918000Y-41910000D02*
X240284000Y-34544000D01*
X223520000Y-40640000D02*
X224790000Y-41910000D01*
X224790000Y-41910000D02*
X232918000Y-41910000D01*
X204978000Y-41910000D02*
X212344000Y-34544000D01*
X195580000Y-39370000D02*
X195580000Y-40640000D01*
X195580000Y-40640000D02*
X196850000Y-41910000D01*
X212344000Y-34544000D02*
X220980000Y-34544000D01*
X220980000Y-34544000D02*
X223520000Y-37084000D01*
X240284000Y-34544000D02*
X248920000Y-34544000D01*
X251460000Y-37084000D02*
X251460000Y-39370000D01*
X176022000Y-41910000D02*
X183388000Y-34544000D01*
X195580000Y-37084000D02*
X195580000Y-39370000D01*
X167640000Y-40640000D02*
X168910000Y-41910000D01*
X183388000Y-34544000D02*
X193040000Y-34544000D01*
X168910000Y-41910000D02*
X176022000Y-41910000D01*
X167640000Y-39370000D02*
X167640000Y-40640000D01*
X193040000Y-34544000D02*
X195580000Y-37084000D01*
X167640000Y-38448500D02*
X167640000Y-39370000D01*
X167640000Y-37618035D02*
X167640000Y-38448500D01*
X152400000Y-35560000D02*
X152552400Y-35560000D01*
X163865954Y-33843989D02*
X167640000Y-37618035D01*
X154268411Y-33843989D02*
X163865954Y-33843989D01*
X152552400Y-35560000D02*
X154268411Y-33843989D01*
X252730000Y-41910000D02*
X257657600Y-41910000D01*
X257657600Y-41910000D02*
X264007600Y-35560000D01*
X264007600Y-35560000D02*
X264160000Y-35560000D01*
X251460000Y-40640000D02*
X252730000Y-41910000D01*
X251460000Y-39370000D02*
X251460000Y-40640000D01*
X163576000Y-34544000D02*
X165100000Y-36068000D01*
X152400000Y-38100000D02*
X152552400Y-38100000D01*
X165100000Y-38448500D02*
X165100000Y-39370000D01*
X152552400Y-38100000D02*
X156108400Y-34544000D01*
X156108400Y-34544000D02*
X163576000Y-34544000D01*
X165100000Y-36068000D02*
X165100000Y-38448500D01*
X219710000Y-39370000D02*
X219710000Y-42679498D01*
X219710000Y-42679498D02*
X213360000Y-49029498D01*
X213360000Y-49029498D02*
X213360000Y-52126400D01*
X213360000Y-52126400D02*
X213360000Y-53340000D01*
X218440000Y-45720000D02*
X218440000Y-50800000D01*
X218440000Y-50800000D02*
X215900000Y-53340000D01*
X219710000Y-45720000D02*
X219710000Y-52070000D01*
X219710000Y-52070000D02*
X218440000Y-53340000D01*
X220980000Y-45720000D02*
X220980000Y-53340000D01*
X222250000Y-45720000D02*
X222250000Y-52070000D01*
X222250000Y-52070000D02*
X223520000Y-53340000D01*
X223520000Y-45720000D02*
X223520000Y-50800000D01*
X223520000Y-50800000D02*
X226060000Y-53340000D01*
X224790000Y-45720000D02*
X224790000Y-49530000D01*
X224790000Y-49530000D02*
X228600000Y-53340000D01*
X226060000Y-45720000D02*
X226060000Y-48260000D01*
X226060000Y-48260000D02*
X231140000Y-53340000D01*
X256540000Y-36830000D02*
X255270000Y-38100000D01*
X255270000Y-38100000D02*
X255270000Y-39370000D01*
X259080000Y-36830000D02*
X256540000Y-36830000D01*
X264160000Y-38100000D02*
X263129316Y-38100000D01*
X263129316Y-38100000D02*
X261739658Y-39489658D01*
X247650000Y-39370000D02*
X247650000Y-42679498D01*
X247650000Y-42679498D02*
X241300000Y-49029498D01*
X241300000Y-49029498D02*
X241300000Y-52126400D01*
X241300000Y-52126400D02*
X241300000Y-53340000D01*
X246380000Y-45720000D02*
X246380000Y-50800000D01*
X246380000Y-50800000D02*
X243840000Y-53340000D01*
X247650000Y-45720000D02*
X247650000Y-52070000D01*
X247650000Y-52070000D02*
X246380000Y-53340000D01*
X248920000Y-45720000D02*
X248920000Y-53340000D01*
X250190000Y-45720000D02*
X250190000Y-52070000D01*
X250190000Y-52070000D02*
X251460000Y-53340000D01*
X251460000Y-45720000D02*
X251460000Y-50800000D01*
X251460000Y-50800000D02*
X254000000Y-53340000D01*
X252730000Y-45720000D02*
X252730000Y-49530000D01*
X252730000Y-49530000D02*
X256540000Y-53340000D01*
X254000000Y-45720000D02*
X254000000Y-48260000D01*
X254000000Y-48260000D02*
X259080000Y-53340000D01*
X193040000Y-31980010D02*
X178522490Y-31980010D01*
X178522490Y-31980010D02*
X171450000Y-39052500D01*
X193040000Y-39370000D02*
X193040000Y-36830000D01*
X220980000Y-31980010D02*
X206462490Y-31980010D01*
X206462490Y-31980010D02*
X199390000Y-39052500D01*
X199390000Y-39052500D02*
X199390000Y-39370000D01*
X220980000Y-39370000D02*
X220980000Y-36830000D01*
X248920000Y-31980010D02*
X234402490Y-31980010D01*
X234402490Y-31980010D02*
X227330000Y-39052500D01*
X227330000Y-39052500D02*
X227330000Y-39370000D01*
X248920000Y-39370000D02*
X248920000Y-36830000D01*
D25*
G36*
X266125000Y-60385000D02*
X150435000Y-60385000D01*
X150435000Y-55030544D01*
X152545000Y-55030544D01*
X152545000Y-55730000D01*
X152670000Y-55855000D01*
X153645000Y-55855000D01*
X153645000Y-54755000D01*
X153695000Y-54755000D01*
X153695000Y-55855000D01*
X154670000Y-55855000D01*
X154795000Y-55730000D01*
X154795000Y-55030544D01*
X154718880Y-54846773D01*
X154578227Y-54706121D01*
X154394456Y-54630000D01*
X153820000Y-54630000D01*
X153695000Y-54755000D01*
X153645000Y-54755000D01*
X153520000Y-54630000D01*
X152945544Y-54630000D01*
X152761773Y-54706121D01*
X152621120Y-54846773D01*
X152545000Y-55030544D01*
X150435000Y-55030544D01*
X150435000Y-40877970D01*
X150904925Y-40877970D01*
X150978231Y-41138730D01*
X151265712Y-41586533D01*
X151702676Y-41890235D01*
X152222600Y-42003600D01*
X152375000Y-42003600D01*
X152375000Y-40665000D01*
X152425000Y-40665000D01*
X152425000Y-42003600D01*
X152577400Y-42003600D01*
X153097324Y-41890235D01*
X153534288Y-41586533D01*
X153821769Y-41138730D01*
X153895075Y-40877970D01*
X153790748Y-40665000D01*
X152425000Y-40665000D01*
X152375000Y-40665000D01*
X151009252Y-40665000D01*
X150904925Y-40877970D01*
X150435000Y-40877970D01*
X150435000Y-33020000D01*
X150854300Y-33020000D01*
X150958098Y-33541827D01*
X151253689Y-33984211D01*
X151696073Y-34279802D01*
X151747342Y-34290000D01*
X151696073Y-34300198D01*
X151253689Y-34595789D01*
X150958098Y-35038173D01*
X150854300Y-35560000D01*
X150958098Y-36081827D01*
X151253689Y-36524211D01*
X151696073Y-36819802D01*
X151747342Y-36830000D01*
X151696073Y-36840198D01*
X151253689Y-37135789D01*
X150958098Y-37578173D01*
X150854300Y-38100000D01*
X150958098Y-38621827D01*
X151253689Y-39064211D01*
X151696073Y-39359802D01*
X151771388Y-39374783D01*
X151702676Y-39389765D01*
X151265712Y-39693467D01*
X150978231Y-40141270D01*
X150904925Y-40402030D01*
X151009252Y-40615000D01*
X152375000Y-40615000D01*
X152375000Y-40595000D01*
X152425000Y-40595000D01*
X152425000Y-40615000D01*
X153790748Y-40615000D01*
X153895075Y-40402030D01*
X153821769Y-40141270D01*
X153534288Y-39693467D01*
X153097324Y-39389765D01*
X153028612Y-39374783D01*
X153103927Y-39359802D01*
X153546311Y-39064211D01*
X153841902Y-38621827D01*
X153945700Y-38100000D01*
X153872914Y-37734080D01*
X154626994Y-36980000D01*
X157540000Y-36980000D01*
X157540000Y-37554456D01*
X157616121Y-37738227D01*
X157756773Y-37878880D01*
X157940544Y-37955000D01*
X158640000Y-37955000D01*
X158765000Y-37830000D01*
X158765000Y-36855000D01*
X157665000Y-36855000D01*
X157540000Y-36980000D01*
X154626994Y-36980000D01*
X155501450Y-36105544D01*
X157540000Y-36105544D01*
X157540000Y-36680000D01*
X157665000Y-36805000D01*
X158765000Y-36805000D01*
X158765000Y-35830000D01*
X158640000Y-35705000D01*
X157940544Y-35705000D01*
X157756773Y-35781120D01*
X157616121Y-35921773D01*
X157540000Y-36105544D01*
X155501450Y-36105544D01*
X156387994Y-35219000D01*
X163296406Y-35219000D01*
X164425000Y-36347594D01*
X164425000Y-38426346D01*
X164282339Y-38328870D01*
X164084000Y-38288705D01*
X163576000Y-38288705D01*
X163560000Y-38291716D01*
X163560000Y-38100000D01*
X163483880Y-37717317D01*
X163267107Y-37392893D01*
X162549795Y-36675581D01*
X162549795Y-36205000D01*
X162514931Y-36019711D01*
X162405425Y-35849535D01*
X162238339Y-35735370D01*
X162040000Y-35695205D01*
X160540000Y-35695205D01*
X160354711Y-35730069D01*
X160184535Y-35839575D01*
X160070370Y-36006661D01*
X160040000Y-36156631D01*
X160040000Y-36105544D01*
X159963879Y-35921773D01*
X159823227Y-35781120D01*
X159639456Y-35705000D01*
X158940000Y-35705000D01*
X158815000Y-35830000D01*
X158815000Y-36805000D01*
X158835000Y-36805000D01*
X158835000Y-36855000D01*
X158815000Y-36855000D01*
X158815000Y-37830000D01*
X158940000Y-37955000D01*
X159639456Y-37955000D01*
X159823227Y-37878880D01*
X159963879Y-37738227D01*
X160040000Y-37554456D01*
X160040000Y-37507057D01*
X160065069Y-37640289D01*
X160174575Y-37810465D01*
X160290000Y-37889332D01*
X160290000Y-38040787D01*
X159960786Y-38370000D01*
X159340511Y-38370000D01*
X158979753Y-38220200D01*
X158522254Y-38219801D01*
X158099428Y-38394509D01*
X157775646Y-38717727D01*
X157600200Y-39140247D01*
X157599801Y-39597746D01*
X157774509Y-40020572D01*
X158097727Y-40344354D01*
X158520247Y-40519800D01*
X158977746Y-40520199D01*
X159341256Y-40370000D01*
X160375000Y-40370000D01*
X160757684Y-40293880D01*
X161082107Y-40077107D01*
X161598029Y-39561185D01*
X161636120Y-39752683D01*
X161809502Y-40012167D01*
X161831069Y-40126789D01*
X161940575Y-40296965D01*
X162107661Y-40411130D01*
X162306000Y-40451295D01*
X162814000Y-40451295D01*
X162999289Y-40416431D01*
X163155000Y-40316233D01*
X163155000Y-42399904D01*
X157002703Y-48552201D01*
X156856381Y-48771186D01*
X156856381Y-48771187D01*
X156805000Y-49029498D01*
X156805000Y-51966605D01*
X156616400Y-51966605D01*
X156431111Y-52001469D01*
X156260935Y-52110975D01*
X156146770Y-52278061D01*
X156106605Y-52476400D01*
X156106605Y-54203600D01*
X156141469Y-54388889D01*
X156250975Y-54559065D01*
X156418061Y-54673230D01*
X156616400Y-54713395D01*
X156790440Y-54713395D01*
X156746323Y-54730596D01*
X156362313Y-55098855D01*
X156148461Y-55586036D01*
X156137325Y-55642030D01*
X156241652Y-55855000D01*
X157455000Y-55855000D01*
X157455000Y-55835000D01*
X157505000Y-55835000D01*
X157505000Y-55855000D01*
X158718348Y-55855000D01*
X158750000Y-55790387D01*
X158781652Y-55855000D01*
X159995000Y-55855000D01*
X159995000Y-55835000D01*
X160045000Y-55835000D01*
X160045000Y-55855000D01*
X161258348Y-55855000D01*
X161290000Y-55790387D01*
X161321652Y-55855000D01*
X162535000Y-55855000D01*
X162535000Y-55835000D01*
X162585000Y-55835000D01*
X162585000Y-55855000D01*
X163798348Y-55855000D01*
X163830000Y-55790387D01*
X163861652Y-55855000D01*
X165075000Y-55855000D01*
X165075000Y-55835000D01*
X165125000Y-55835000D01*
X165125000Y-55855000D01*
X166338348Y-55855000D01*
X166370000Y-55790387D01*
X166401652Y-55855000D01*
X167615000Y-55855000D01*
X167615000Y-55835000D01*
X167665000Y-55835000D01*
X167665000Y-55855000D01*
X168878348Y-55855000D01*
X168910000Y-55790387D01*
X168941652Y-55855000D01*
X170155000Y-55855000D01*
X170155000Y-55835000D01*
X170205000Y-55835000D01*
X170205000Y-55855000D01*
X171418348Y-55855000D01*
X171450000Y-55790387D01*
X171481652Y-55855000D01*
X172695000Y-55855000D01*
X172695000Y-55835000D01*
X172745000Y-55835000D01*
X172745000Y-55855000D01*
X173958348Y-55855000D01*
X173990000Y-55790387D01*
X174021652Y-55855000D01*
X175235000Y-55855000D01*
X175235000Y-55835000D01*
X175285000Y-55835000D01*
X175285000Y-55855000D01*
X176498348Y-55855000D01*
X176602675Y-55642030D01*
X176591539Y-55586036D01*
X176377687Y-55098855D01*
X176327310Y-55050544D01*
X179215000Y-55050544D01*
X179215000Y-55750000D01*
X179340000Y-55875000D01*
X180315000Y-55875000D01*
X180315000Y-54775000D01*
X180365000Y-54775000D01*
X180365000Y-55875000D01*
X181340000Y-55875000D01*
X181465000Y-55750000D01*
X181465000Y-55050544D01*
X181388880Y-54866773D01*
X181248227Y-54726121D01*
X181064456Y-54650000D01*
X180490000Y-54650000D01*
X180365000Y-54775000D01*
X180315000Y-54775000D01*
X180190000Y-54650000D01*
X179615544Y-54650000D01*
X179431773Y-54726121D01*
X179291120Y-54866773D01*
X179215000Y-55050544D01*
X176327310Y-55050544D01*
X175993677Y-54730596D01*
X175709000Y-54619602D01*
X175808542Y-54599802D01*
X176250926Y-54304211D01*
X176546517Y-53861827D01*
X176650315Y-53340000D01*
X176546517Y-52818173D01*
X176250926Y-52375789D01*
X175808542Y-52080198D01*
X175286715Y-51976400D01*
X175233285Y-51976400D01*
X174914420Y-52039826D01*
X170855000Y-47980406D01*
X170855000Y-46657607D01*
X170912773Y-46715380D01*
X171096544Y-46791500D01*
X171300000Y-46791500D01*
X171425000Y-46666500D01*
X171425000Y-45745000D01*
X171475000Y-45745000D01*
X171475000Y-46666500D01*
X171600000Y-46791500D01*
X171803456Y-46791500D01*
X171987227Y-46715380D01*
X172127879Y-46574727D01*
X172204000Y-46390956D01*
X172204000Y-45870000D01*
X172079000Y-45745000D01*
X171475000Y-45745000D01*
X171425000Y-45745000D01*
X171405000Y-45745000D01*
X171405000Y-45695000D01*
X171425000Y-45695000D01*
X171425000Y-44773500D01*
X171475000Y-44773500D01*
X171475000Y-45695000D01*
X172079000Y-45695000D01*
X172204000Y-45570000D01*
X172204000Y-45049044D01*
X172127879Y-44865273D01*
X171987227Y-44724620D01*
X171803456Y-44648500D01*
X171600000Y-44648500D01*
X171475000Y-44773500D01*
X171425000Y-44773500D01*
X171300000Y-44648500D01*
X171096544Y-44648500D01*
X170912773Y-44724620D01*
X170817018Y-44820375D01*
X170799425Y-44793035D01*
X170632339Y-44678870D01*
X170434000Y-44638705D01*
X169926000Y-44638705D01*
X169740711Y-44673569D01*
X169570535Y-44783075D01*
X169546063Y-44818891D01*
X169529425Y-44793035D01*
X169362339Y-44678870D01*
X169164000Y-44638705D01*
X168656000Y-44638705D01*
X168470711Y-44673569D01*
X168300535Y-44783075D01*
X168276063Y-44818891D01*
X168259425Y-44793035D01*
X168092339Y-44678870D01*
X167894000Y-44638705D01*
X167386000Y-44638705D01*
X167200711Y-44673569D01*
X167030535Y-44783075D01*
X167006063Y-44818891D01*
X166989425Y-44793035D01*
X166822339Y-44678870D01*
X166624000Y-44638705D01*
X166116000Y-44638705D01*
X165930711Y-44673569D01*
X165760535Y-44783075D01*
X165736063Y-44818891D01*
X165719425Y-44793035D01*
X165552339Y-44678870D01*
X165354000Y-44638705D01*
X164846000Y-44638705D01*
X164660711Y-44673569D01*
X164490535Y-44783075D01*
X164466063Y-44818891D01*
X164449425Y-44793035D01*
X164282339Y-44678870D01*
X164084000Y-44638705D01*
X163576000Y-44638705D01*
X163390711Y-44673569D01*
X163220535Y-44783075D01*
X163196063Y-44818891D01*
X163179425Y-44793035D01*
X163012339Y-44678870D01*
X162823469Y-44640623D01*
X164307297Y-43156795D01*
X164453619Y-42937810D01*
X164505000Y-42679498D01*
X164505000Y-40313654D01*
X164647661Y-40411130D01*
X164846000Y-40451295D01*
X165354000Y-40451295D01*
X165539289Y-40416431D01*
X165709465Y-40306925D01*
X165735790Y-40268397D01*
X165832773Y-40365380D01*
X166016544Y-40441500D01*
X166220000Y-40441500D01*
X166345000Y-40316500D01*
X166345000Y-39395000D01*
X166325000Y-39395000D01*
X166325000Y-39345000D01*
X166345000Y-39345000D01*
X166345000Y-38423500D01*
X166220000Y-38298500D01*
X166016544Y-38298500D01*
X165832773Y-38374620D01*
X165775000Y-38432393D01*
X165775000Y-36707629D01*
X166965000Y-37897629D01*
X166965000Y-38432393D01*
X166907227Y-38374620D01*
X166723456Y-38298500D01*
X166520000Y-38298500D01*
X166395000Y-38423500D01*
X166395000Y-39345000D01*
X166415000Y-39345000D01*
X166415000Y-39395000D01*
X166395000Y-39395000D01*
X166395000Y-40316500D01*
X166520000Y-40441500D01*
X166723456Y-40441500D01*
X166907227Y-40365380D01*
X166965000Y-40307607D01*
X166965000Y-40640000D01*
X167016381Y-40898312D01*
X167162703Y-41117297D01*
X168432703Y-42387297D01*
X168651688Y-42533619D01*
X168910000Y-42585000D01*
X176022000Y-42585000D01*
X176280312Y-42533619D01*
X176499297Y-42387297D01*
X181906594Y-36980000D01*
X185440000Y-36980000D01*
X185440000Y-37554456D01*
X185516121Y-37738227D01*
X185656773Y-37878880D01*
X185840544Y-37955000D01*
X186540000Y-37955000D01*
X186665000Y-37830000D01*
X186665000Y-36855000D01*
X185565000Y-36855000D01*
X185440000Y-36980000D01*
X181906594Y-36980000D01*
X182781050Y-36105544D01*
X185440000Y-36105544D01*
X185440000Y-36680000D01*
X185565000Y-36805000D01*
X186665000Y-36805000D01*
X186665000Y-35830000D01*
X186540000Y-35705000D01*
X185840544Y-35705000D01*
X185656773Y-35781120D01*
X185516121Y-35921773D01*
X185440000Y-36105544D01*
X182781050Y-36105544D01*
X183667594Y-35219000D01*
X192760406Y-35219000D01*
X193221564Y-35680158D01*
X192812254Y-35679801D01*
X192389428Y-35854509D01*
X192065646Y-36177727D01*
X191890200Y-36600247D01*
X191889801Y-37057746D01*
X192064509Y-37480572D01*
X192365000Y-37781587D01*
X192365000Y-38426346D01*
X192222339Y-38328870D01*
X192024000Y-38288705D01*
X191516000Y-38288705D01*
X191500000Y-38291716D01*
X191500000Y-38140000D01*
X191458215Y-37929931D01*
X191423880Y-37757316D01*
X191207107Y-37432893D01*
X190449795Y-36675581D01*
X190449795Y-36205000D01*
X190414931Y-36019711D01*
X190305425Y-35849535D01*
X190138339Y-35735370D01*
X189940000Y-35695205D01*
X188440000Y-35695205D01*
X188254711Y-35730069D01*
X188084535Y-35839575D01*
X187970370Y-36006661D01*
X187940000Y-36156631D01*
X187940000Y-36105544D01*
X187863879Y-35921773D01*
X187723227Y-35781120D01*
X187539456Y-35705000D01*
X186840000Y-35705000D01*
X186715000Y-35830000D01*
X186715000Y-36805000D01*
X186735000Y-36805000D01*
X186735000Y-36855000D01*
X186715000Y-36855000D01*
X186715000Y-37830000D01*
X186840000Y-37955000D01*
X187539456Y-37955000D01*
X187723227Y-37878880D01*
X187863879Y-37738227D01*
X187940000Y-37554456D01*
X187940000Y-37507057D01*
X187965069Y-37640289D01*
X188074575Y-37810465D01*
X188190000Y-37889332D01*
X188190000Y-38040787D01*
X187860786Y-38370000D01*
X187280511Y-38370000D01*
X186919753Y-38220200D01*
X186462254Y-38219801D01*
X186039428Y-38394509D01*
X185715646Y-38717727D01*
X185540200Y-39140247D01*
X185539801Y-39597746D01*
X185714509Y-40020572D01*
X186037727Y-40344354D01*
X186460247Y-40519800D01*
X186917746Y-40520199D01*
X187281256Y-40370000D01*
X188275000Y-40370000D01*
X188657684Y-40293880D01*
X188982107Y-40077107D01*
X189531392Y-39527821D01*
X189576120Y-39752683D01*
X189749502Y-40012167D01*
X189771069Y-40126789D01*
X189880575Y-40296965D01*
X190047661Y-40411130D01*
X190246000Y-40451295D01*
X190754000Y-40451295D01*
X190939289Y-40416431D01*
X191095000Y-40316233D01*
X191095000Y-42399904D01*
X184942703Y-48552201D01*
X184796381Y-48771186D01*
X184796381Y-48771187D01*
X184745000Y-49029498D01*
X184745000Y-51966605D01*
X184556400Y-51966605D01*
X184371111Y-52001469D01*
X184200935Y-52110975D01*
X184086770Y-52278061D01*
X184046605Y-52476400D01*
X184046605Y-54203600D01*
X184081469Y-54388889D01*
X184190975Y-54559065D01*
X184358061Y-54673230D01*
X184556400Y-54713395D01*
X184730440Y-54713395D01*
X184686323Y-54730596D01*
X184302313Y-55098855D01*
X184088461Y-55586036D01*
X184077325Y-55642030D01*
X184181652Y-55855000D01*
X185395000Y-55855000D01*
X185395000Y-55835000D01*
X185445000Y-55835000D01*
X185445000Y-55855000D01*
X186658348Y-55855000D01*
X186690000Y-55790387D01*
X186721652Y-55855000D01*
X187935000Y-55855000D01*
X187935000Y-55835000D01*
X187985000Y-55835000D01*
X187985000Y-55855000D01*
X189198348Y-55855000D01*
X189230000Y-55790387D01*
X189261652Y-55855000D01*
X190475000Y-55855000D01*
X190475000Y-55835000D01*
X190525000Y-55835000D01*
X190525000Y-55855000D01*
X191738348Y-55855000D01*
X191770000Y-55790387D01*
X191801652Y-55855000D01*
X193015000Y-55855000D01*
X193015000Y-55835000D01*
X193065000Y-55835000D01*
X193065000Y-55855000D01*
X194278348Y-55855000D01*
X194310000Y-55790387D01*
X194341652Y-55855000D01*
X195555000Y-55855000D01*
X195555000Y-55835000D01*
X195605000Y-55835000D01*
X195605000Y-55855000D01*
X196818348Y-55855000D01*
X196850000Y-55790387D01*
X196881652Y-55855000D01*
X198095000Y-55855000D01*
X198095000Y-55835000D01*
X198145000Y-55835000D01*
X198145000Y-55855000D01*
X199358348Y-55855000D01*
X199390000Y-55790387D01*
X199421652Y-55855000D01*
X200635000Y-55855000D01*
X200635000Y-55835000D01*
X200685000Y-55835000D01*
X200685000Y-55855000D01*
X201898348Y-55855000D01*
X201930000Y-55790387D01*
X201961652Y-55855000D01*
X203175000Y-55855000D01*
X203175000Y-55835000D01*
X203225000Y-55835000D01*
X203225000Y-55855000D01*
X204438348Y-55855000D01*
X204542675Y-55642030D01*
X204531539Y-55586036D01*
X204317687Y-55098855D01*
X204267310Y-55050544D01*
X207155000Y-55050544D01*
X207155000Y-55750000D01*
X207280000Y-55875000D01*
X208255000Y-55875000D01*
X208255000Y-54775000D01*
X208305000Y-54775000D01*
X208305000Y-55875000D01*
X209280000Y-55875000D01*
X209405000Y-55750000D01*
X209405000Y-55050544D01*
X209328880Y-54866773D01*
X209188227Y-54726121D01*
X209004456Y-54650000D01*
X208430000Y-54650000D01*
X208305000Y-54775000D01*
X208255000Y-54775000D01*
X208130000Y-54650000D01*
X207555544Y-54650000D01*
X207371773Y-54726121D01*
X207231120Y-54866773D01*
X207155000Y-55050544D01*
X204267310Y-55050544D01*
X203933677Y-54730596D01*
X203649000Y-54619602D01*
X203748542Y-54599802D01*
X204190926Y-54304211D01*
X204486517Y-53861827D01*
X204590315Y-53340000D01*
X204486517Y-52818173D01*
X204190926Y-52375789D01*
X203748542Y-52080198D01*
X203226715Y-51976400D01*
X203173285Y-51976400D01*
X202854420Y-52039826D01*
X198795000Y-47980406D01*
X198795000Y-46657607D01*
X198852773Y-46715380D01*
X199036544Y-46791500D01*
X199240000Y-46791500D01*
X199365000Y-46666500D01*
X199365000Y-45745000D01*
X199415000Y-45745000D01*
X199415000Y-46666500D01*
X199540000Y-46791500D01*
X199743456Y-46791500D01*
X199927227Y-46715380D01*
X200067879Y-46574727D01*
X200144000Y-46390956D01*
X200144000Y-45870000D01*
X200019000Y-45745000D01*
X199415000Y-45745000D01*
X199365000Y-45745000D01*
X199345000Y-45745000D01*
X199345000Y-45695000D01*
X199365000Y-45695000D01*
X199365000Y-44773500D01*
X199415000Y-44773500D01*
X199415000Y-45695000D01*
X200019000Y-45695000D01*
X200144000Y-45570000D01*
X200144000Y-45049044D01*
X200067879Y-44865273D01*
X199927227Y-44724620D01*
X199743456Y-44648500D01*
X199540000Y-44648500D01*
X199415000Y-44773500D01*
X199365000Y-44773500D01*
X199240000Y-44648500D01*
X199036544Y-44648500D01*
X198852773Y-44724620D01*
X198757018Y-44820375D01*
X198739425Y-44793035D01*
X198572339Y-44678870D01*
X198374000Y-44638705D01*
X197866000Y-44638705D01*
X197680711Y-44673569D01*
X197510535Y-44783075D01*
X197486063Y-44818891D01*
X197469425Y-44793035D01*
X197302339Y-44678870D01*
X197104000Y-44638705D01*
X196596000Y-44638705D01*
X196410711Y-44673569D01*
X196240535Y-44783075D01*
X196216063Y-44818891D01*
X196199425Y-44793035D01*
X196032339Y-44678870D01*
X195834000Y-44638705D01*
X195326000Y-44638705D01*
X195140711Y-44673569D01*
X194970535Y-44783075D01*
X194946063Y-44818891D01*
X194929425Y-44793035D01*
X194762339Y-44678870D01*
X194564000Y-44638705D01*
X194056000Y-44638705D01*
X193870711Y-44673569D01*
X193700535Y-44783075D01*
X193676063Y-44818891D01*
X193659425Y-44793035D01*
X193492339Y-44678870D01*
X193294000Y-44638705D01*
X192786000Y-44638705D01*
X192600711Y-44673569D01*
X192430535Y-44783075D01*
X192406063Y-44818891D01*
X192389425Y-44793035D01*
X192222339Y-44678870D01*
X192024000Y-44638705D01*
X191516000Y-44638705D01*
X191330711Y-44673569D01*
X191160535Y-44783075D01*
X191136063Y-44818891D01*
X191119425Y-44793035D01*
X190952339Y-44678870D01*
X190763469Y-44640623D01*
X192247297Y-43156795D01*
X192393619Y-42937810D01*
X192445000Y-42679498D01*
X192445000Y-40313654D01*
X192587661Y-40411130D01*
X192786000Y-40451295D01*
X193294000Y-40451295D01*
X193479289Y-40416431D01*
X193649465Y-40306925D01*
X193675790Y-40268397D01*
X193772773Y-40365380D01*
X193956544Y-40441500D01*
X194160000Y-40441500D01*
X194285000Y-40316500D01*
X194285000Y-39395000D01*
X194265000Y-39395000D01*
X194265000Y-39345000D01*
X194285000Y-39345000D01*
X194285000Y-38423500D01*
X194160000Y-38298500D01*
X193956544Y-38298500D01*
X193772773Y-38374620D01*
X193715000Y-38432393D01*
X193715000Y-37781106D01*
X194014354Y-37482273D01*
X194189800Y-37059753D01*
X194190158Y-36648752D01*
X194905000Y-37363594D01*
X194905000Y-38432393D01*
X194847227Y-38374620D01*
X194663456Y-38298500D01*
X194460000Y-38298500D01*
X194335000Y-38423500D01*
X194335000Y-39345000D01*
X194355000Y-39345000D01*
X194355000Y-39395000D01*
X194335000Y-39395000D01*
X194335000Y-40316500D01*
X194460000Y-40441500D01*
X194663456Y-40441500D01*
X194847227Y-40365380D01*
X194905000Y-40307607D01*
X194905000Y-40640000D01*
X194956381Y-40898312D01*
X195102703Y-41117297D01*
X196372703Y-42387297D01*
X196591688Y-42533619D01*
X196850000Y-42585000D01*
X204978000Y-42585000D01*
X205236312Y-42533619D01*
X205455297Y-42387297D01*
X210862594Y-36980000D01*
X213400000Y-36980000D01*
X213400000Y-37554456D01*
X213476121Y-37738227D01*
X213616773Y-37878880D01*
X213800544Y-37955000D01*
X214500000Y-37955000D01*
X214625000Y-37830000D01*
X214625000Y-36855000D01*
X213525000Y-36855000D01*
X213400000Y-36980000D01*
X210862594Y-36980000D01*
X211737050Y-36105544D01*
X213400000Y-36105544D01*
X213400000Y-36680000D01*
X213525000Y-36805000D01*
X214625000Y-36805000D01*
X214625000Y-35830000D01*
X214500000Y-35705000D01*
X213800544Y-35705000D01*
X213616773Y-35781120D01*
X213476121Y-35921773D01*
X213400000Y-36105544D01*
X211737050Y-36105544D01*
X212623594Y-35219000D01*
X220700406Y-35219000D01*
X221161564Y-35680158D01*
X220752254Y-35679801D01*
X220329428Y-35854509D01*
X220005646Y-36177727D01*
X219830200Y-36600247D01*
X219829801Y-37057746D01*
X220004509Y-37480572D01*
X220305000Y-37781587D01*
X220305000Y-38426346D01*
X220162339Y-38328870D01*
X219964000Y-38288705D01*
X219456000Y-38288705D01*
X219440000Y-38291716D01*
X219440000Y-38120000D01*
X219363880Y-37737317D01*
X219147107Y-37412893D01*
X219147104Y-37412891D01*
X218409795Y-36675581D01*
X218409795Y-36205000D01*
X218374931Y-36019711D01*
X218265425Y-35849535D01*
X218098339Y-35735370D01*
X217900000Y-35695205D01*
X216400000Y-35695205D01*
X216214711Y-35730069D01*
X216044535Y-35839575D01*
X215930370Y-36006661D01*
X215900000Y-36156631D01*
X215900000Y-36105544D01*
X215823879Y-35921773D01*
X215683227Y-35781120D01*
X215499456Y-35705000D01*
X214800000Y-35705000D01*
X214675000Y-35830000D01*
X214675000Y-36805000D01*
X214695000Y-36805000D01*
X214695000Y-36855000D01*
X214675000Y-36855000D01*
X214675000Y-37830000D01*
X214800000Y-37955000D01*
X215499456Y-37955000D01*
X215683227Y-37878880D01*
X215823879Y-37738227D01*
X215900000Y-37554456D01*
X215900000Y-37507057D01*
X215925069Y-37640289D01*
X216034575Y-37810465D01*
X216150000Y-37889332D01*
X216150000Y-38040787D01*
X215820786Y-38370000D01*
X215220511Y-38370000D01*
X214859753Y-38220200D01*
X214402254Y-38219801D01*
X213979428Y-38394509D01*
X213655646Y-38717727D01*
X213480200Y-39140247D01*
X213479801Y-39597746D01*
X213654509Y-40020572D01*
X213977727Y-40344354D01*
X214400247Y-40519800D01*
X214857746Y-40520199D01*
X215221256Y-40370000D01*
X216235000Y-40370000D01*
X216617684Y-40293880D01*
X216942107Y-40077107D01*
X217474711Y-39544503D01*
X217516120Y-39752683D01*
X217689502Y-40012167D01*
X217711069Y-40126789D01*
X217820575Y-40296965D01*
X217987661Y-40411130D01*
X218186000Y-40451295D01*
X218694000Y-40451295D01*
X218879289Y-40416431D01*
X219035000Y-40316233D01*
X219035000Y-42399904D01*
X212882703Y-48552201D01*
X212736381Y-48771186D01*
X212736381Y-48771187D01*
X212685000Y-49029498D01*
X212685000Y-51966605D01*
X212496400Y-51966605D01*
X212311111Y-52001469D01*
X212140935Y-52110975D01*
X212026770Y-52278061D01*
X211986605Y-52476400D01*
X211986605Y-54203600D01*
X212021469Y-54388889D01*
X212130975Y-54559065D01*
X212298061Y-54673230D01*
X212496400Y-54713395D01*
X212670440Y-54713395D01*
X212626323Y-54730596D01*
X212242313Y-55098855D01*
X212028461Y-55586036D01*
X212017325Y-55642030D01*
X212121652Y-55855000D01*
X213335000Y-55855000D01*
X213335000Y-55835000D01*
X213385000Y-55835000D01*
X213385000Y-55855000D01*
X214598348Y-55855000D01*
X214630000Y-55790387D01*
X214661652Y-55855000D01*
X215875000Y-55855000D01*
X215875000Y-55835000D01*
X215925000Y-55835000D01*
X215925000Y-55855000D01*
X217138348Y-55855000D01*
X217170000Y-55790387D01*
X217201652Y-55855000D01*
X218415000Y-55855000D01*
X218415000Y-55835000D01*
X218465000Y-55835000D01*
X218465000Y-55855000D01*
X219678348Y-55855000D01*
X219710000Y-55790387D01*
X219741652Y-55855000D01*
X220955000Y-55855000D01*
X220955000Y-55835000D01*
X221005000Y-55835000D01*
X221005000Y-55855000D01*
X222218348Y-55855000D01*
X222250000Y-55790387D01*
X222281652Y-55855000D01*
X223495000Y-55855000D01*
X223495000Y-55835000D01*
X223545000Y-55835000D01*
X223545000Y-55855000D01*
X224758348Y-55855000D01*
X224790000Y-55790387D01*
X224821652Y-55855000D01*
X226035000Y-55855000D01*
X226035000Y-55835000D01*
X226085000Y-55835000D01*
X226085000Y-55855000D01*
X227298348Y-55855000D01*
X227330000Y-55790387D01*
X227361652Y-55855000D01*
X228575000Y-55855000D01*
X228575000Y-55835000D01*
X228625000Y-55835000D01*
X228625000Y-55855000D01*
X229838348Y-55855000D01*
X229870000Y-55790387D01*
X229901652Y-55855000D01*
X231115000Y-55855000D01*
X231115000Y-55835000D01*
X231165000Y-55835000D01*
X231165000Y-55855000D01*
X232378348Y-55855000D01*
X232482675Y-55642030D01*
X232471539Y-55586036D01*
X232257687Y-55098855D01*
X232207310Y-55050544D01*
X235095000Y-55050544D01*
X235095000Y-55750000D01*
X235220000Y-55875000D01*
X236195000Y-55875000D01*
X236195000Y-54775000D01*
X236245000Y-54775000D01*
X236245000Y-55875000D01*
X237220000Y-55875000D01*
X237345000Y-55750000D01*
X237345000Y-55050544D01*
X237268880Y-54866773D01*
X237128227Y-54726121D01*
X236944456Y-54650000D01*
X236370000Y-54650000D01*
X236245000Y-54775000D01*
X236195000Y-54775000D01*
X236070000Y-54650000D01*
X235495544Y-54650000D01*
X235311773Y-54726121D01*
X235171120Y-54866773D01*
X235095000Y-55050544D01*
X232207310Y-55050544D01*
X231873677Y-54730596D01*
X231589000Y-54619602D01*
X231688542Y-54599802D01*
X232130926Y-54304211D01*
X232426517Y-53861827D01*
X232530315Y-53340000D01*
X232426517Y-52818173D01*
X232130926Y-52375789D01*
X231688542Y-52080198D01*
X231166715Y-51976400D01*
X231113285Y-51976400D01*
X230794420Y-52039826D01*
X226735000Y-47980406D01*
X226735000Y-46657607D01*
X226792773Y-46715380D01*
X226976544Y-46791500D01*
X227180000Y-46791500D01*
X227305000Y-46666500D01*
X227305000Y-45745000D01*
X227355000Y-45745000D01*
X227355000Y-46666500D01*
X227480000Y-46791500D01*
X227683456Y-46791500D01*
X227867227Y-46715380D01*
X228007879Y-46574727D01*
X228084000Y-46390956D01*
X228084000Y-45870000D01*
X227959000Y-45745000D01*
X227355000Y-45745000D01*
X227305000Y-45745000D01*
X227285000Y-45745000D01*
X227285000Y-45695000D01*
X227305000Y-45695000D01*
X227305000Y-44773500D01*
X227355000Y-44773500D01*
X227355000Y-45695000D01*
X227959000Y-45695000D01*
X228084000Y-45570000D01*
X228084000Y-45049044D01*
X228007879Y-44865273D01*
X227867227Y-44724620D01*
X227683456Y-44648500D01*
X227480000Y-44648500D01*
X227355000Y-44773500D01*
X227305000Y-44773500D01*
X227180000Y-44648500D01*
X226976544Y-44648500D01*
X226792773Y-44724620D01*
X226697018Y-44820375D01*
X226679425Y-44793035D01*
X226512339Y-44678870D01*
X226314000Y-44638705D01*
X225806000Y-44638705D01*
X225620711Y-44673569D01*
X225450535Y-44783075D01*
X225426063Y-44818891D01*
X225409425Y-44793035D01*
X225242339Y-44678870D01*
X225044000Y-44638705D01*
X224536000Y-44638705D01*
X224350711Y-44673569D01*
X224180535Y-44783075D01*
X224156063Y-44818891D01*
X224139425Y-44793035D01*
X223972339Y-44678870D01*
X223774000Y-44638705D01*
X223266000Y-44638705D01*
X223080711Y-44673569D01*
X222910535Y-44783075D01*
X222886063Y-44818891D01*
X222869425Y-44793035D01*
X222702339Y-44678870D01*
X222504000Y-44638705D01*
X221996000Y-44638705D01*
X221810711Y-44673569D01*
X221640535Y-44783075D01*
X221616063Y-44818891D01*
X221599425Y-44793035D01*
X221432339Y-44678870D01*
X221234000Y-44638705D01*
X220726000Y-44638705D01*
X220540711Y-44673569D01*
X220370535Y-44783075D01*
X220346063Y-44818891D01*
X220329425Y-44793035D01*
X220162339Y-44678870D01*
X219964000Y-44638705D01*
X219456000Y-44638705D01*
X219270711Y-44673569D01*
X219100535Y-44783075D01*
X219076063Y-44818891D01*
X219059425Y-44793035D01*
X218892339Y-44678870D01*
X218703469Y-44640623D01*
X220187297Y-43156795D01*
X220333619Y-42937810D01*
X220385000Y-42679498D01*
X220385000Y-40313654D01*
X220527661Y-40411130D01*
X220726000Y-40451295D01*
X221234000Y-40451295D01*
X221419289Y-40416431D01*
X221589465Y-40306925D01*
X221615790Y-40268397D01*
X221712773Y-40365380D01*
X221896544Y-40441500D01*
X222100000Y-40441500D01*
X222225000Y-40316500D01*
X222225000Y-39395000D01*
X222205000Y-39395000D01*
X222205000Y-39345000D01*
X222225000Y-39345000D01*
X222225000Y-38423500D01*
X222100000Y-38298500D01*
X221896544Y-38298500D01*
X221712773Y-38374620D01*
X221655000Y-38432393D01*
X221655000Y-37781106D01*
X221954354Y-37482273D01*
X222129800Y-37059753D01*
X222130158Y-36648752D01*
X222845000Y-37363594D01*
X222845000Y-38432393D01*
X222787227Y-38374620D01*
X222603456Y-38298500D01*
X222400000Y-38298500D01*
X222275000Y-38423500D01*
X222275000Y-39345000D01*
X222295000Y-39345000D01*
X222295000Y-39395000D01*
X222275000Y-39395000D01*
X222275000Y-40316500D01*
X222400000Y-40441500D01*
X222603456Y-40441500D01*
X222787227Y-40365380D01*
X222845000Y-40307607D01*
X222845000Y-40640000D01*
X222896381Y-40898312D01*
X223042703Y-41117297D01*
X224312703Y-42387297D01*
X224531688Y-42533619D01*
X224790000Y-42585000D01*
X232918000Y-42585000D01*
X233176312Y-42533619D01*
X233395297Y-42387297D01*
X238802594Y-36980000D01*
X241340000Y-36980000D01*
X241340000Y-37554456D01*
X241416121Y-37738227D01*
X241556773Y-37878880D01*
X241740544Y-37955000D01*
X242440000Y-37955000D01*
X242565000Y-37830000D01*
X242565000Y-36855000D01*
X241465000Y-36855000D01*
X241340000Y-36980000D01*
X238802594Y-36980000D01*
X239677050Y-36105544D01*
X241340000Y-36105544D01*
X241340000Y-36680000D01*
X241465000Y-36805000D01*
X242565000Y-36805000D01*
X242565000Y-35830000D01*
X242440000Y-35705000D01*
X241740544Y-35705000D01*
X241556773Y-35781120D01*
X241416121Y-35921773D01*
X241340000Y-36105544D01*
X239677050Y-36105544D01*
X240563594Y-35219000D01*
X248640406Y-35219000D01*
X249101564Y-35680158D01*
X248692254Y-35679801D01*
X248269428Y-35854509D01*
X247945646Y-36177727D01*
X247770200Y-36600247D01*
X247769801Y-37057746D01*
X247944509Y-37480572D01*
X248245000Y-37781587D01*
X248245000Y-38426346D01*
X248102339Y-38328870D01*
X247904000Y-38288705D01*
X247396000Y-38288705D01*
X247380000Y-38291716D01*
X247380000Y-38120000D01*
X247303880Y-37737317D01*
X247087107Y-37412893D01*
X247087104Y-37412891D01*
X246349795Y-36675581D01*
X246349795Y-36205000D01*
X246314931Y-36019711D01*
X246205425Y-35849535D01*
X246038339Y-35735370D01*
X245840000Y-35695205D01*
X244340000Y-35695205D01*
X244154711Y-35730069D01*
X243984535Y-35839575D01*
X243870370Y-36006661D01*
X243840000Y-36156631D01*
X243840000Y-36105544D01*
X243763879Y-35921773D01*
X243623227Y-35781120D01*
X243439456Y-35705000D01*
X242740000Y-35705000D01*
X242615000Y-35830000D01*
X242615000Y-36805000D01*
X242635000Y-36805000D01*
X242635000Y-36855000D01*
X242615000Y-36855000D01*
X242615000Y-37830000D01*
X242740000Y-37955000D01*
X243439456Y-37955000D01*
X243623227Y-37878880D01*
X243763879Y-37738227D01*
X243840000Y-37554456D01*
X243840000Y-37507057D01*
X243865069Y-37640289D01*
X243974575Y-37810465D01*
X244090000Y-37889332D01*
X244090000Y-38040787D01*
X243760786Y-38370000D01*
X243160511Y-38370000D01*
X242799753Y-38220200D01*
X242342254Y-38219801D01*
X241919428Y-38394509D01*
X241595646Y-38717727D01*
X241420200Y-39140247D01*
X241419801Y-39597746D01*
X241594509Y-40020572D01*
X241917727Y-40344354D01*
X242340247Y-40519800D01*
X242797746Y-40520199D01*
X243161256Y-40370000D01*
X244175000Y-40370000D01*
X244557684Y-40293880D01*
X244882107Y-40077107D01*
X245414711Y-39544503D01*
X245456120Y-39752683D01*
X245629502Y-40012167D01*
X245651069Y-40126789D01*
X245760575Y-40296965D01*
X245927661Y-40411130D01*
X246126000Y-40451295D01*
X246634000Y-40451295D01*
X246819289Y-40416431D01*
X246975000Y-40316233D01*
X246975000Y-42399904D01*
X240822703Y-48552201D01*
X240676381Y-48771186D01*
X240676381Y-48771187D01*
X240625000Y-49029498D01*
X240625000Y-51966605D01*
X240436400Y-51966605D01*
X240251111Y-52001469D01*
X240080935Y-52110975D01*
X239966770Y-52278061D01*
X239926605Y-52476400D01*
X239926605Y-54203600D01*
X239961469Y-54388889D01*
X240070975Y-54559065D01*
X240238061Y-54673230D01*
X240436400Y-54713395D01*
X240610440Y-54713395D01*
X240566323Y-54730596D01*
X240182313Y-55098855D01*
X239968461Y-55586036D01*
X239957325Y-55642030D01*
X240061652Y-55855000D01*
X241275000Y-55855000D01*
X241275000Y-55835000D01*
X241325000Y-55835000D01*
X241325000Y-55855000D01*
X242538348Y-55855000D01*
X242570000Y-55790387D01*
X242601652Y-55855000D01*
X243815000Y-55855000D01*
X243815000Y-55835000D01*
X243865000Y-55835000D01*
X243865000Y-55855000D01*
X245078348Y-55855000D01*
X245110000Y-55790387D01*
X245141652Y-55855000D01*
X246355000Y-55855000D01*
X246355000Y-55835000D01*
X246405000Y-55835000D01*
X246405000Y-55855000D01*
X247618348Y-55855000D01*
X247650000Y-55790387D01*
X247681652Y-55855000D01*
X248895000Y-55855000D01*
X248895000Y-55835000D01*
X248945000Y-55835000D01*
X248945000Y-55855000D01*
X250158348Y-55855000D01*
X250190000Y-55790387D01*
X250221652Y-55855000D01*
X251435000Y-55855000D01*
X251435000Y-55835000D01*
X251485000Y-55835000D01*
X251485000Y-55855000D01*
X252698348Y-55855000D01*
X252730000Y-55790387D01*
X252761652Y-55855000D01*
X253975000Y-55855000D01*
X253975000Y-55835000D01*
X254025000Y-55835000D01*
X254025000Y-55855000D01*
X255238348Y-55855000D01*
X255270000Y-55790387D01*
X255301652Y-55855000D01*
X256515000Y-55855000D01*
X256515000Y-55835000D01*
X256565000Y-55835000D01*
X256565000Y-55855000D01*
X257778348Y-55855000D01*
X257810000Y-55790387D01*
X257841652Y-55855000D01*
X259055000Y-55855000D01*
X259055000Y-55835000D01*
X259105000Y-55835000D01*
X259105000Y-55855000D01*
X259125000Y-55855000D01*
X259125000Y-55905000D01*
X259105000Y-55905000D01*
X259105000Y-55925000D01*
X259055000Y-55925000D01*
X259055000Y-55905000D01*
X257841652Y-55905000D01*
X257810000Y-55969613D01*
X257778348Y-55905000D01*
X256565000Y-55905000D01*
X256565000Y-55925000D01*
X256515000Y-55925000D01*
X256515000Y-55905000D01*
X255301652Y-55905000D01*
X255270000Y-55969613D01*
X255238348Y-55905000D01*
X254025000Y-55905000D01*
X254025000Y-55925000D01*
X253975000Y-55925000D01*
X253975000Y-55905000D01*
X252761652Y-55905000D01*
X252730000Y-55969613D01*
X252698348Y-55905000D01*
X251485000Y-55905000D01*
X251485000Y-55925000D01*
X251435000Y-55925000D01*
X251435000Y-55905000D01*
X250221652Y-55905000D01*
X250190000Y-55969613D01*
X250158348Y-55905000D01*
X248945000Y-55905000D01*
X248945000Y-55925000D01*
X248895000Y-55925000D01*
X248895000Y-55905000D01*
X247681652Y-55905000D01*
X247650000Y-55969613D01*
X247618348Y-55905000D01*
X246405000Y-55905000D01*
X246405000Y-55925000D01*
X246355000Y-55925000D01*
X246355000Y-55905000D01*
X245141652Y-55905000D01*
X245110000Y-55969613D01*
X245078348Y-55905000D01*
X243865000Y-55905000D01*
X243865000Y-55925000D01*
X243815000Y-55925000D01*
X243815000Y-55905000D01*
X242601652Y-55905000D01*
X242570000Y-55969613D01*
X242538348Y-55905000D01*
X241325000Y-55905000D01*
X241325000Y-55925000D01*
X241275000Y-55925000D01*
X241275000Y-55905000D01*
X240061652Y-55905000D01*
X239957325Y-56117970D01*
X239968461Y-56173964D01*
X240182313Y-56661145D01*
X240427155Y-56895944D01*
X240251111Y-56929069D01*
X240080935Y-57038575D01*
X239966770Y-57205661D01*
X239931465Y-57380000D01*
X237265421Y-57380000D01*
X237210425Y-57294535D01*
X237043339Y-57180370D01*
X236893369Y-57150000D01*
X236944456Y-57150000D01*
X237128227Y-57073879D01*
X237268880Y-56933227D01*
X237345000Y-56749456D01*
X237345000Y-56050000D01*
X237220000Y-55925000D01*
X236245000Y-55925000D01*
X236245000Y-55945000D01*
X236195000Y-55945000D01*
X236195000Y-55925000D01*
X235220000Y-55925000D01*
X235095000Y-56050000D01*
X235095000Y-56749456D01*
X235171120Y-56933227D01*
X235311773Y-57073879D01*
X235495544Y-57150000D01*
X235542943Y-57150000D01*
X235409711Y-57175069D01*
X235239535Y-57284575D01*
X235174334Y-57380000D01*
X232175246Y-57380000D01*
X232104211Y-57273689D01*
X231788383Y-57062660D01*
X231873677Y-57029404D01*
X232257687Y-56661145D01*
X232471539Y-56173964D01*
X232482675Y-56117970D01*
X232378348Y-55905000D01*
X231165000Y-55905000D01*
X231165000Y-55925000D01*
X231115000Y-55925000D01*
X231115000Y-55905000D01*
X229901652Y-55905000D01*
X229870000Y-55969613D01*
X229838348Y-55905000D01*
X228625000Y-55905000D01*
X228625000Y-55925000D01*
X228575000Y-55925000D01*
X228575000Y-55905000D01*
X227361652Y-55905000D01*
X227330000Y-55969613D01*
X227298348Y-55905000D01*
X226085000Y-55905000D01*
X226085000Y-55925000D01*
X226035000Y-55925000D01*
X226035000Y-55905000D01*
X224821652Y-55905000D01*
X224790000Y-55969613D01*
X224758348Y-55905000D01*
X223545000Y-55905000D01*
X223545000Y-55925000D01*
X223495000Y-55925000D01*
X223495000Y-55905000D01*
X222281652Y-55905000D01*
X222250000Y-55969613D01*
X222218348Y-55905000D01*
X221005000Y-55905000D01*
X221005000Y-55925000D01*
X220955000Y-55925000D01*
X220955000Y-55905000D01*
X219741652Y-55905000D01*
X219710000Y-55969613D01*
X219678348Y-55905000D01*
X218465000Y-55905000D01*
X218465000Y-55925000D01*
X218415000Y-55925000D01*
X218415000Y-55905000D01*
X217201652Y-55905000D01*
X217170000Y-55969613D01*
X217138348Y-55905000D01*
X215925000Y-55905000D01*
X215925000Y-55925000D01*
X215875000Y-55925000D01*
X215875000Y-55905000D01*
X214661652Y-55905000D01*
X214630000Y-55969613D01*
X214598348Y-55905000D01*
X213385000Y-55905000D01*
X213385000Y-55925000D01*
X213335000Y-55925000D01*
X213335000Y-55905000D01*
X212121652Y-55905000D01*
X212017325Y-56117970D01*
X212028461Y-56173964D01*
X212242313Y-56661145D01*
X212487155Y-56895944D01*
X212311111Y-56929069D01*
X212140935Y-57038575D01*
X212026770Y-57205661D01*
X211991465Y-57380000D01*
X209325421Y-57380000D01*
X209270425Y-57294535D01*
X209103339Y-57180370D01*
X208953369Y-57150000D01*
X209004456Y-57150000D01*
X209188227Y-57073879D01*
X209328880Y-56933227D01*
X209405000Y-56749456D01*
X209405000Y-56050000D01*
X209280000Y-55925000D01*
X208305000Y-55925000D01*
X208305000Y-55945000D01*
X208255000Y-55945000D01*
X208255000Y-55925000D01*
X207280000Y-55925000D01*
X207155000Y-56050000D01*
X207155000Y-56749456D01*
X207231120Y-56933227D01*
X207371773Y-57073879D01*
X207555544Y-57150000D01*
X207602943Y-57150000D01*
X207469711Y-57175069D01*
X207299535Y-57284575D01*
X207234334Y-57380000D01*
X204235246Y-57380000D01*
X204164211Y-57273689D01*
X203848383Y-57062660D01*
X203933677Y-57029404D01*
X204317687Y-56661145D01*
X204531539Y-56173964D01*
X204542675Y-56117970D01*
X204438348Y-55905000D01*
X203225000Y-55905000D01*
X203225000Y-55925000D01*
X203175000Y-55925000D01*
X203175000Y-55905000D01*
X201961652Y-55905000D01*
X201930000Y-55969613D01*
X201898348Y-55905000D01*
X200685000Y-55905000D01*
X200685000Y-55925000D01*
X200635000Y-55925000D01*
X200635000Y-55905000D01*
X199421652Y-55905000D01*
X199390000Y-55969613D01*
X199358348Y-55905000D01*
X198145000Y-55905000D01*
X198145000Y-55925000D01*
X198095000Y-55925000D01*
X198095000Y-55905000D01*
X196881652Y-55905000D01*
X196850000Y-55969613D01*
X196818348Y-55905000D01*
X195605000Y-55905000D01*
X195605000Y-55925000D01*
X195555000Y-55925000D01*
X195555000Y-55905000D01*
X194341652Y-55905000D01*
X194310000Y-55969613D01*
X194278348Y-55905000D01*
X193065000Y-55905000D01*
X193065000Y-55925000D01*
X193015000Y-55925000D01*
X193015000Y-55905000D01*
X191801652Y-55905000D01*
X191770000Y-55969613D01*
X191738348Y-55905000D01*
X190525000Y-55905000D01*
X190525000Y-55925000D01*
X190475000Y-55925000D01*
X190475000Y-55905000D01*
X189261652Y-55905000D01*
X189230000Y-55969613D01*
X189198348Y-55905000D01*
X187985000Y-55905000D01*
X187985000Y-55925000D01*
X187935000Y-55925000D01*
X187935000Y-55905000D01*
X186721652Y-55905000D01*
X186690000Y-55969613D01*
X186658348Y-55905000D01*
X185445000Y-55905000D01*
X185445000Y-55925000D01*
X185395000Y-55925000D01*
X185395000Y-55905000D01*
X184181652Y-55905000D01*
X184077325Y-56117970D01*
X184088461Y-56173964D01*
X184302313Y-56661145D01*
X184547155Y-56895944D01*
X184371111Y-56929069D01*
X184200935Y-57038575D01*
X184086770Y-57205661D01*
X184051465Y-57380000D01*
X181385421Y-57380000D01*
X181330425Y-57294535D01*
X181163339Y-57180370D01*
X181013369Y-57150000D01*
X181064456Y-57150000D01*
X181248227Y-57073879D01*
X181388880Y-56933227D01*
X181465000Y-56749456D01*
X181465000Y-56050000D01*
X181340000Y-55925000D01*
X180365000Y-55925000D01*
X180365000Y-55945000D01*
X180315000Y-55945000D01*
X180315000Y-55925000D01*
X179340000Y-55925000D01*
X179215000Y-56050000D01*
X179215000Y-56749456D01*
X179291120Y-56933227D01*
X179431773Y-57073879D01*
X179615544Y-57150000D01*
X179662943Y-57150000D01*
X179529711Y-57175069D01*
X179359535Y-57284575D01*
X179294334Y-57380000D01*
X176295246Y-57380000D01*
X176224211Y-57273689D01*
X175908383Y-57062660D01*
X175993677Y-57029404D01*
X176377687Y-56661145D01*
X176591539Y-56173964D01*
X176602675Y-56117970D01*
X176498348Y-55905000D01*
X175285000Y-55905000D01*
X175285000Y-55925000D01*
X175235000Y-55925000D01*
X175235000Y-55905000D01*
X174021652Y-55905000D01*
X173990000Y-55969613D01*
X173958348Y-55905000D01*
X172745000Y-55905000D01*
X172745000Y-55925000D01*
X172695000Y-55925000D01*
X172695000Y-55905000D01*
X171481652Y-55905000D01*
X171450000Y-55969613D01*
X171418348Y-55905000D01*
X170205000Y-55905000D01*
X170205000Y-55925000D01*
X170155000Y-55925000D01*
X170155000Y-55905000D01*
X168941652Y-55905000D01*
X168910000Y-55969613D01*
X168878348Y-55905000D01*
X167665000Y-55905000D01*
X167665000Y-55925000D01*
X167615000Y-55925000D01*
X167615000Y-55905000D01*
X166401652Y-55905000D01*
X166370000Y-55969613D01*
X166338348Y-55905000D01*
X165125000Y-55905000D01*
X165125000Y-55925000D01*
X165075000Y-55925000D01*
X165075000Y-55905000D01*
X163861652Y-55905000D01*
X163830000Y-55969613D01*
X163798348Y-55905000D01*
X162585000Y-55905000D01*
X162585000Y-55925000D01*
X162535000Y-55925000D01*
X162535000Y-55905000D01*
X161321652Y-55905000D01*
X161290000Y-55969613D01*
X161258348Y-55905000D01*
X160045000Y-55905000D01*
X160045000Y-55925000D01*
X159995000Y-55925000D01*
X159995000Y-55905000D01*
X158781652Y-55905000D01*
X158750000Y-55969613D01*
X158718348Y-55905000D01*
X157505000Y-55905000D01*
X157505000Y-55925000D01*
X157455000Y-55925000D01*
X157455000Y-55905000D01*
X156241652Y-55905000D01*
X156137325Y-56117970D01*
X156148461Y-56173964D01*
X156362313Y-56661145D01*
X156607155Y-56895944D01*
X156431111Y-56929069D01*
X156260935Y-57038575D01*
X156146770Y-57205661D01*
X156111465Y-57380000D01*
X154728290Y-57380000D01*
X154660425Y-57274535D01*
X154493339Y-57160370D01*
X154343369Y-57130000D01*
X154394456Y-57130000D01*
X154578227Y-57053879D01*
X154718880Y-56913227D01*
X154795000Y-56729456D01*
X154795000Y-56030000D01*
X154670000Y-55905000D01*
X153695000Y-55905000D01*
X153695000Y-55925000D01*
X153645000Y-55925000D01*
X153645000Y-55905000D01*
X152670000Y-55905000D01*
X152545000Y-56030000D01*
X152545000Y-56729456D01*
X152621120Y-56913227D01*
X152761773Y-57053879D01*
X152945544Y-57130000D01*
X152992943Y-57130000D01*
X152859711Y-57155069D01*
X152689535Y-57264575D01*
X152575370Y-57431661D01*
X152535205Y-57630000D01*
X152535205Y-59130000D01*
X152570069Y-59315289D01*
X152679575Y-59485465D01*
X152846661Y-59599630D01*
X153045000Y-59639795D01*
X154295000Y-59639795D01*
X154480289Y-59604931D01*
X154650465Y-59495425D01*
X154729332Y-59380000D01*
X156106605Y-59380000D01*
X156106605Y-59436000D01*
X156141469Y-59621289D01*
X156250975Y-59791465D01*
X156418061Y-59905630D01*
X156616400Y-59945795D01*
X158343600Y-59945795D01*
X158528889Y-59910931D01*
X158699065Y-59801425D01*
X158813230Y-59634339D01*
X158853395Y-59436000D01*
X158853395Y-59380000D01*
X158931300Y-59380000D01*
X159055789Y-59566311D01*
X159498173Y-59861902D01*
X160020000Y-59965700D01*
X160541827Y-59861902D01*
X160984211Y-59566311D01*
X161108700Y-59380000D01*
X161471300Y-59380000D01*
X161595789Y-59566311D01*
X162038173Y-59861902D01*
X162560000Y-59965700D01*
X163081827Y-59861902D01*
X163524211Y-59566311D01*
X163648700Y-59380000D01*
X164011300Y-59380000D01*
X164135789Y-59566311D01*
X164578173Y-59861902D01*
X165100000Y-59965700D01*
X165621827Y-59861902D01*
X166064211Y-59566311D01*
X166188700Y-59380000D01*
X166551300Y-59380000D01*
X166675789Y-59566311D01*
X167118173Y-59861902D01*
X167640000Y-59965700D01*
X168161827Y-59861902D01*
X168604211Y-59566311D01*
X168728700Y-59380000D01*
X169091300Y-59380000D01*
X169215789Y-59566311D01*
X169658173Y-59861902D01*
X170180000Y-59965700D01*
X170701827Y-59861902D01*
X171144211Y-59566311D01*
X171268700Y-59380000D01*
X171631300Y-59380000D01*
X171755789Y-59566311D01*
X172198173Y-59861902D01*
X172720000Y-59965700D01*
X173241827Y-59861902D01*
X173684211Y-59566311D01*
X173808700Y-59380000D01*
X174171300Y-59380000D01*
X174295789Y-59566311D01*
X174738173Y-59861902D01*
X175260000Y-59965700D01*
X175781827Y-59861902D01*
X176224211Y-59566311D01*
X176348700Y-59380000D01*
X179268840Y-59380000D01*
X179349575Y-59505465D01*
X179516661Y-59619630D01*
X179715000Y-59659795D01*
X180965000Y-59659795D01*
X181150289Y-59624931D01*
X181320465Y-59515425D01*
X181412997Y-59380000D01*
X184046605Y-59380000D01*
X184046605Y-59436000D01*
X184081469Y-59621289D01*
X184190975Y-59791465D01*
X184358061Y-59905630D01*
X184556400Y-59945795D01*
X186283600Y-59945795D01*
X186468889Y-59910931D01*
X186639065Y-59801425D01*
X186753230Y-59634339D01*
X186793395Y-59436000D01*
X186793395Y-59380000D01*
X186871300Y-59380000D01*
X186995789Y-59566311D01*
X187438173Y-59861902D01*
X187960000Y-59965700D01*
X188481827Y-59861902D01*
X188924211Y-59566311D01*
X189048700Y-59380000D01*
X189411300Y-59380000D01*
X189535789Y-59566311D01*
X189978173Y-59861902D01*
X190500000Y-59965700D01*
X191021827Y-59861902D01*
X191464211Y-59566311D01*
X191588700Y-59380000D01*
X191951300Y-59380000D01*
X192075789Y-59566311D01*
X192518173Y-59861902D01*
X193040000Y-59965700D01*
X193561827Y-59861902D01*
X194004211Y-59566311D01*
X194128700Y-59380000D01*
X194491300Y-59380000D01*
X194615789Y-59566311D01*
X195058173Y-59861902D01*
X195580000Y-59965700D01*
X196101827Y-59861902D01*
X196544211Y-59566311D01*
X196668700Y-59380000D01*
X197031300Y-59380000D01*
X197155789Y-59566311D01*
X197598173Y-59861902D01*
X198120000Y-59965700D01*
X198641827Y-59861902D01*
X199084211Y-59566311D01*
X199208700Y-59380000D01*
X199571300Y-59380000D01*
X199695789Y-59566311D01*
X200138173Y-59861902D01*
X200660000Y-59965700D01*
X201181827Y-59861902D01*
X201624211Y-59566311D01*
X201748700Y-59380000D01*
X202111300Y-59380000D01*
X202235789Y-59566311D01*
X202678173Y-59861902D01*
X203200000Y-59965700D01*
X203721827Y-59861902D01*
X204164211Y-59566311D01*
X204288700Y-59380000D01*
X207208840Y-59380000D01*
X207289575Y-59505465D01*
X207456661Y-59619630D01*
X207655000Y-59659795D01*
X208905000Y-59659795D01*
X209090289Y-59624931D01*
X209260465Y-59515425D01*
X209352997Y-59380000D01*
X211986605Y-59380000D01*
X211986605Y-59436000D01*
X212021469Y-59621289D01*
X212130975Y-59791465D01*
X212298061Y-59905630D01*
X212496400Y-59945795D01*
X214223600Y-59945795D01*
X214408889Y-59910931D01*
X214579065Y-59801425D01*
X214693230Y-59634339D01*
X214733395Y-59436000D01*
X214733395Y-59380000D01*
X214811300Y-59380000D01*
X214935789Y-59566311D01*
X215378173Y-59861902D01*
X215900000Y-59965700D01*
X216421827Y-59861902D01*
X216864211Y-59566311D01*
X216988700Y-59380000D01*
X217351300Y-59380000D01*
X217475789Y-59566311D01*
X217918173Y-59861902D01*
X218440000Y-59965700D01*
X218961827Y-59861902D01*
X219404211Y-59566311D01*
X219528700Y-59380000D01*
X219891300Y-59380000D01*
X220015789Y-59566311D01*
X220458173Y-59861902D01*
X220980000Y-59965700D01*
X221501827Y-59861902D01*
X221944211Y-59566311D01*
X222068700Y-59380000D01*
X222431300Y-59380000D01*
X222555789Y-59566311D01*
X222998173Y-59861902D01*
X223520000Y-59965700D01*
X224041827Y-59861902D01*
X224484211Y-59566311D01*
X224608700Y-59380000D01*
X224971300Y-59380000D01*
X225095789Y-59566311D01*
X225538173Y-59861902D01*
X226060000Y-59965700D01*
X226581827Y-59861902D01*
X227024211Y-59566311D01*
X227148700Y-59380000D01*
X227511300Y-59380000D01*
X227635789Y-59566311D01*
X228078173Y-59861902D01*
X228600000Y-59965700D01*
X229121827Y-59861902D01*
X229564211Y-59566311D01*
X229688700Y-59380000D01*
X230051300Y-59380000D01*
X230175789Y-59566311D01*
X230618173Y-59861902D01*
X231140000Y-59965700D01*
X231661827Y-59861902D01*
X232104211Y-59566311D01*
X232228700Y-59380000D01*
X235148840Y-59380000D01*
X235229575Y-59505465D01*
X235396661Y-59619630D01*
X235595000Y-59659795D01*
X236845000Y-59659795D01*
X237030289Y-59624931D01*
X237200465Y-59515425D01*
X237292997Y-59380000D01*
X239926605Y-59380000D01*
X239926605Y-59436000D01*
X239961469Y-59621289D01*
X240070975Y-59791465D01*
X240238061Y-59905630D01*
X240436400Y-59945795D01*
X242163600Y-59945795D01*
X242348889Y-59910931D01*
X242519065Y-59801425D01*
X242633230Y-59634339D01*
X242673395Y-59436000D01*
X242673395Y-59380000D01*
X242751300Y-59380000D01*
X242875789Y-59566311D01*
X243318173Y-59861902D01*
X243840000Y-59965700D01*
X244361827Y-59861902D01*
X244804211Y-59566311D01*
X244928700Y-59380000D01*
X245291300Y-59380000D01*
X245415789Y-59566311D01*
X245858173Y-59861902D01*
X246380000Y-59965700D01*
X246901827Y-59861902D01*
X247344211Y-59566311D01*
X247468700Y-59380000D01*
X247831300Y-59380000D01*
X247955789Y-59566311D01*
X248398173Y-59861902D01*
X248920000Y-59965700D01*
X249441827Y-59861902D01*
X249884211Y-59566311D01*
X250008700Y-59380000D01*
X250371300Y-59380000D01*
X250495789Y-59566311D01*
X250938173Y-59861902D01*
X251460000Y-59965700D01*
X251981827Y-59861902D01*
X252424211Y-59566311D01*
X252548700Y-59380000D01*
X252911300Y-59380000D01*
X253035789Y-59566311D01*
X253478173Y-59861902D01*
X254000000Y-59965700D01*
X254521827Y-59861902D01*
X254964211Y-59566311D01*
X255088700Y-59380000D01*
X255451300Y-59380000D01*
X255575789Y-59566311D01*
X256018173Y-59861902D01*
X256540000Y-59965700D01*
X257061827Y-59861902D01*
X257504211Y-59566311D01*
X257628700Y-59380000D01*
X257991300Y-59380000D01*
X258115789Y-59566311D01*
X258558173Y-59861902D01*
X259080000Y-59965700D01*
X259601827Y-59861902D01*
X260044211Y-59566311D01*
X260339802Y-59123927D01*
X260443600Y-58602100D01*
X260443600Y-58470614D01*
X262034213Y-56880000D01*
X262634205Y-56880000D01*
X262634205Y-56896000D01*
X262669069Y-57081289D01*
X262778575Y-57251465D01*
X262945661Y-57365630D01*
X263144000Y-57405795D01*
X265176000Y-57405795D01*
X265361289Y-57370931D01*
X265531465Y-57261425D01*
X265645630Y-57094339D01*
X265685795Y-56896000D01*
X265685795Y-54864000D01*
X265650931Y-54678711D01*
X265541425Y-54508535D01*
X265374339Y-54394370D01*
X265235848Y-54366325D01*
X265439366Y-54153317D01*
X265653223Y-53601815D01*
X265550796Y-53365000D01*
X264185000Y-53365000D01*
X264185000Y-53385000D01*
X264135000Y-53385000D01*
X264135000Y-53365000D01*
X262769204Y-53365000D01*
X262666777Y-53601815D01*
X262880634Y-54153317D01*
X263083457Y-54365597D01*
X262958711Y-54389069D01*
X262788535Y-54498575D01*
X262674370Y-54665661D01*
X262634205Y-54864000D01*
X262634205Y-54880000D01*
X261620000Y-54880000D01*
X261237317Y-54956120D01*
X260912893Y-55172893D01*
X260912891Y-55172896D01*
X260402431Y-55683356D01*
X260422675Y-55642030D01*
X260411539Y-55586036D01*
X260197687Y-55098855D01*
X259813677Y-54730596D01*
X259529000Y-54619602D01*
X259628542Y-54599802D01*
X260070926Y-54304211D01*
X260366517Y-53861827D01*
X260470315Y-53340000D01*
X260418237Y-53078185D01*
X262666777Y-53078185D01*
X262769204Y-53315000D01*
X264135000Y-53315000D01*
X264135000Y-51949225D01*
X264185000Y-51949225D01*
X264185000Y-53315000D01*
X265550796Y-53315000D01*
X265653223Y-53078185D01*
X265439366Y-52526683D01*
X265030737Y-52099001D01*
X264489546Y-51860250D01*
X264421815Y-51846779D01*
X264185000Y-51949225D01*
X264135000Y-51949225D01*
X263898185Y-51846779D01*
X263830454Y-51860250D01*
X263289263Y-52099001D01*
X262880634Y-52526683D01*
X262666777Y-53078185D01*
X260418237Y-53078185D01*
X260366517Y-52818173D01*
X260070926Y-52375789D01*
X259628542Y-52080198D01*
X259106715Y-51976400D01*
X259053285Y-51976400D01*
X258734420Y-52039826D01*
X254675000Y-47980406D01*
X254675000Y-46657607D01*
X254732773Y-46715380D01*
X254916544Y-46791500D01*
X255120000Y-46791500D01*
X255245000Y-46666500D01*
X255245000Y-45745000D01*
X255295000Y-45745000D01*
X255295000Y-46666500D01*
X255420000Y-46791500D01*
X255623456Y-46791500D01*
X255807227Y-46715380D01*
X255947879Y-46574727D01*
X256024000Y-46390956D01*
X256024000Y-45870000D01*
X255899000Y-45745000D01*
X255295000Y-45745000D01*
X255245000Y-45745000D01*
X255225000Y-45745000D01*
X255225000Y-45695000D01*
X255245000Y-45695000D01*
X255245000Y-44773500D01*
X255295000Y-44773500D01*
X255295000Y-45695000D01*
X255899000Y-45695000D01*
X256024000Y-45570000D01*
X256024000Y-45049044D01*
X255947879Y-44865273D01*
X255807227Y-44724620D01*
X255623456Y-44648500D01*
X255420000Y-44648500D01*
X255295000Y-44773500D01*
X255245000Y-44773500D01*
X255120000Y-44648500D01*
X254916544Y-44648500D01*
X254732773Y-44724620D01*
X254637018Y-44820375D01*
X254619425Y-44793035D01*
X254452339Y-44678870D01*
X254254000Y-44638705D01*
X253746000Y-44638705D01*
X253560711Y-44673569D01*
X253390535Y-44783075D01*
X253366063Y-44818891D01*
X253349425Y-44793035D01*
X253182339Y-44678870D01*
X252984000Y-44638705D01*
X252476000Y-44638705D01*
X252290711Y-44673569D01*
X252120535Y-44783075D01*
X252096063Y-44818891D01*
X252079425Y-44793035D01*
X251912339Y-44678870D01*
X251714000Y-44638705D01*
X251206000Y-44638705D01*
X251020711Y-44673569D01*
X250850535Y-44783075D01*
X250826063Y-44818891D01*
X250809425Y-44793035D01*
X250642339Y-44678870D01*
X250444000Y-44638705D01*
X249936000Y-44638705D01*
X249750711Y-44673569D01*
X249580535Y-44783075D01*
X249556063Y-44818891D01*
X249539425Y-44793035D01*
X249372339Y-44678870D01*
X249174000Y-44638705D01*
X248666000Y-44638705D01*
X248480711Y-44673569D01*
X248310535Y-44783075D01*
X248286063Y-44818891D01*
X248269425Y-44793035D01*
X248102339Y-44678870D01*
X247904000Y-44638705D01*
X247396000Y-44638705D01*
X247210711Y-44673569D01*
X247040535Y-44783075D01*
X247016063Y-44818891D01*
X246999425Y-44793035D01*
X246832339Y-44678870D01*
X246643469Y-44640623D01*
X248127297Y-43156795D01*
X248273619Y-42937810D01*
X248325000Y-42679498D01*
X248325000Y-40313654D01*
X248467661Y-40411130D01*
X248666000Y-40451295D01*
X249174000Y-40451295D01*
X249359289Y-40416431D01*
X249529465Y-40306925D01*
X249555790Y-40268397D01*
X249652773Y-40365380D01*
X249836544Y-40441500D01*
X250040000Y-40441500D01*
X250165000Y-40316500D01*
X250165000Y-39395000D01*
X250145000Y-39395000D01*
X250145000Y-39345000D01*
X250165000Y-39345000D01*
X250165000Y-38423500D01*
X250040000Y-38298500D01*
X249836544Y-38298500D01*
X249652773Y-38374620D01*
X249595000Y-38432393D01*
X249595000Y-37781106D01*
X249894354Y-37482273D01*
X250069800Y-37059753D01*
X250070158Y-36648752D01*
X250785000Y-37363594D01*
X250785000Y-38432393D01*
X250727227Y-38374620D01*
X250543456Y-38298500D01*
X250340000Y-38298500D01*
X250215000Y-38423500D01*
X250215000Y-39345000D01*
X250235000Y-39345000D01*
X250235000Y-39395000D01*
X250215000Y-39395000D01*
X250215000Y-40316500D01*
X250340000Y-40441500D01*
X250543456Y-40441500D01*
X250727227Y-40365380D01*
X250785000Y-40307607D01*
X250785000Y-40640000D01*
X250836381Y-40898312D01*
X250982703Y-41117297D01*
X252252703Y-42387297D01*
X252471688Y-42533619D01*
X252730000Y-42585000D01*
X257657600Y-42585000D01*
X257915912Y-42533619D01*
X258134897Y-42387297D01*
X259644224Y-40877970D01*
X262664925Y-40877970D01*
X262738231Y-41138730D01*
X263025712Y-41586533D01*
X263462676Y-41890235D01*
X263982600Y-42003600D01*
X264135000Y-42003600D01*
X264135000Y-40665000D01*
X264185000Y-40665000D01*
X264185000Y-42003600D01*
X264337400Y-42003600D01*
X264857324Y-41890235D01*
X265294288Y-41586533D01*
X265581769Y-41138730D01*
X265655075Y-40877970D01*
X265550748Y-40665000D01*
X264185000Y-40665000D01*
X264135000Y-40665000D01*
X262769252Y-40665000D01*
X262664925Y-40877970D01*
X259644224Y-40877970D01*
X260652418Y-39869776D01*
X260764167Y-40140230D01*
X261087385Y-40464012D01*
X261509905Y-40639458D01*
X261967404Y-40639857D01*
X262390230Y-40465149D01*
X262714012Y-40141931D01*
X262889458Y-39719411D01*
X262889829Y-39294081D01*
X263077237Y-39106673D01*
X263456073Y-39359802D01*
X263531388Y-39374783D01*
X263462676Y-39389765D01*
X263025712Y-39693467D01*
X262738231Y-40141270D01*
X262664925Y-40402030D01*
X262769252Y-40615000D01*
X264135000Y-40615000D01*
X264135000Y-40595000D01*
X264185000Y-40595000D01*
X264185000Y-40615000D01*
X265550748Y-40615000D01*
X265655075Y-40402030D01*
X265581769Y-40141270D01*
X265294288Y-39693467D01*
X264857324Y-39389765D01*
X264788612Y-39374783D01*
X264863927Y-39359802D01*
X265306311Y-39064211D01*
X265601902Y-38621827D01*
X265705700Y-38100000D01*
X265601902Y-37578173D01*
X265306311Y-37135789D01*
X264863927Y-36840198D01*
X264812658Y-36830000D01*
X264863927Y-36819802D01*
X265306311Y-36524211D01*
X265601902Y-36081827D01*
X265705700Y-35560000D01*
X265601902Y-35038173D01*
X265306311Y-34595789D01*
X264863927Y-34300198D01*
X264812658Y-34290000D01*
X264863927Y-34279802D01*
X265306311Y-33984211D01*
X265601902Y-33541827D01*
X265705700Y-33020000D01*
X265601902Y-32498173D01*
X265306311Y-32055789D01*
X265003406Y-31853395D01*
X265176000Y-31853395D01*
X265361289Y-31818531D01*
X265531465Y-31709025D01*
X265645630Y-31541939D01*
X265685795Y-31343600D01*
X265685795Y-29616400D01*
X265650931Y-29431111D01*
X265541425Y-29260935D01*
X265374339Y-29146770D01*
X265176000Y-29106605D01*
X263144000Y-29106605D01*
X262958711Y-29141469D01*
X262788535Y-29250975D01*
X262674370Y-29418061D01*
X262661827Y-29480000D01*
X243160511Y-29480000D01*
X242799753Y-29330200D01*
X242342254Y-29329801D01*
X241978744Y-29480000D01*
X215220511Y-29480000D01*
X214859753Y-29330200D01*
X214402254Y-29329801D01*
X214038744Y-29480000D01*
X187280511Y-29480000D01*
X186919753Y-29330200D01*
X186462254Y-29329801D01*
X186098744Y-29480000D01*
X159340511Y-29480000D01*
X158979753Y-29330200D01*
X158522254Y-29329801D01*
X158158744Y-29480000D01*
X153900130Y-29480000D01*
X153890931Y-29431111D01*
X153781425Y-29260935D01*
X153614339Y-29146770D01*
X153416000Y-29106605D01*
X151384000Y-29106605D01*
X151198711Y-29141469D01*
X151028535Y-29250975D01*
X150914370Y-29418061D01*
X150874205Y-29616400D01*
X150874205Y-31343600D01*
X150909069Y-31528889D01*
X151018575Y-31699065D01*
X151185661Y-31813230D01*
X151384000Y-31853395D01*
X151556594Y-31853395D01*
X151253689Y-32055789D01*
X150958098Y-32498173D01*
X150854300Y-33020000D01*
X150435000Y-33020000D01*
X150435000Y-28515000D01*
X266125000Y-28515000D01*
X266125000Y-60385000D01*
X266125000Y-60385000D01*
G37*
X266125000Y-60385000D02*
X150435000Y-60385000D01*
X150435000Y-55030544D01*
X152545000Y-55030544D01*
X152545000Y-55730000D01*
X152670000Y-55855000D01*
X153645000Y-55855000D01*
X153645000Y-54755000D01*
X153695000Y-54755000D01*
X153695000Y-55855000D01*
X154670000Y-55855000D01*
X154795000Y-55730000D01*
X154795000Y-55030544D01*
X154718880Y-54846773D01*
X154578227Y-54706121D01*
X154394456Y-54630000D01*
X153820000Y-54630000D01*
X153695000Y-54755000D01*
X153645000Y-54755000D01*
X153520000Y-54630000D01*
X152945544Y-54630000D01*
X152761773Y-54706121D01*
X152621120Y-54846773D01*
X152545000Y-55030544D01*
X150435000Y-55030544D01*
X150435000Y-40877970D01*
X150904925Y-40877970D01*
X150978231Y-41138730D01*
X151265712Y-41586533D01*
X151702676Y-41890235D01*
X152222600Y-42003600D01*
X152375000Y-42003600D01*
X152375000Y-40665000D01*
X152425000Y-40665000D01*
X152425000Y-42003600D01*
X152577400Y-42003600D01*
X153097324Y-41890235D01*
X153534288Y-41586533D01*
X153821769Y-41138730D01*
X153895075Y-40877970D01*
X153790748Y-40665000D01*
X152425000Y-40665000D01*
X152375000Y-40665000D01*
X151009252Y-40665000D01*
X150904925Y-40877970D01*
X150435000Y-40877970D01*
X150435000Y-33020000D01*
X150854300Y-33020000D01*
X150958098Y-33541827D01*
X151253689Y-33984211D01*
X151696073Y-34279802D01*
X151747342Y-34290000D01*
X151696073Y-34300198D01*
X151253689Y-34595789D01*
X150958098Y-35038173D01*
X150854300Y-35560000D01*
X150958098Y-36081827D01*
X151253689Y-36524211D01*
X151696073Y-36819802D01*
X151747342Y-36830000D01*
X151696073Y-36840198D01*
X151253689Y-37135789D01*
X150958098Y-37578173D01*
X150854300Y-38100000D01*
X150958098Y-38621827D01*
X151253689Y-39064211D01*
X151696073Y-39359802D01*
X151771388Y-39374783D01*
X151702676Y-39389765D01*
X151265712Y-39693467D01*
X150978231Y-40141270D01*
X150904925Y-40402030D01*
X151009252Y-40615000D01*
X152375000Y-40615000D01*
X152375000Y-40595000D01*
X152425000Y-40595000D01*
X152425000Y-40615000D01*
X153790748Y-40615000D01*
X153895075Y-40402030D01*
X153821769Y-40141270D01*
X153534288Y-39693467D01*
X153097324Y-39389765D01*
X153028612Y-39374783D01*
X153103927Y-39359802D01*
X153546311Y-39064211D01*
X153841902Y-38621827D01*
X153945700Y-38100000D01*
X153872914Y-37734080D01*
X154626994Y-36980000D01*
X157540000Y-36980000D01*
X157540000Y-37554456D01*
X157616121Y-37738227D01*
X157756773Y-37878880D01*
X157940544Y-37955000D01*
X158640000Y-37955000D01*
X158765000Y-37830000D01*
X158765000Y-36855000D01*
X157665000Y-36855000D01*
X157540000Y-36980000D01*
X154626994Y-36980000D01*
X155501450Y-36105544D01*
X157540000Y-36105544D01*
X157540000Y-36680000D01*
X157665000Y-36805000D01*
X158765000Y-36805000D01*
X158765000Y-35830000D01*
X158640000Y-35705000D01*
X157940544Y-35705000D01*
X157756773Y-35781120D01*
X157616121Y-35921773D01*
X157540000Y-36105544D01*
X155501450Y-36105544D01*
X156387994Y-35219000D01*
X163296406Y-35219000D01*
X164425000Y-36347594D01*
X164425000Y-38426346D01*
X164282339Y-38328870D01*
X164084000Y-38288705D01*
X163576000Y-38288705D01*
X163560000Y-38291716D01*
X163560000Y-38100000D01*
X163483880Y-37717317D01*
X163267107Y-37392893D01*
X162549795Y-36675581D01*
X162549795Y-36205000D01*
X162514931Y-36019711D01*
X162405425Y-35849535D01*
X162238339Y-35735370D01*
X162040000Y-35695205D01*
X160540000Y-35695205D01*
X160354711Y-35730069D01*
X160184535Y-35839575D01*
X160070370Y-36006661D01*
X160040000Y-36156631D01*
X160040000Y-36105544D01*
X159963879Y-35921773D01*
X159823227Y-35781120D01*
X159639456Y-35705000D01*
X158940000Y-35705000D01*
X158815000Y-35830000D01*
X158815000Y-36805000D01*
X158835000Y-36805000D01*
X158835000Y-36855000D01*
X158815000Y-36855000D01*
X158815000Y-37830000D01*
X158940000Y-37955000D01*
X159639456Y-37955000D01*
X159823227Y-37878880D01*
X159963879Y-37738227D01*
X160040000Y-37554456D01*
X160040000Y-37507057D01*
X160065069Y-37640289D01*
X160174575Y-37810465D01*
X160290000Y-37889332D01*
X160290000Y-38040787D01*
X159960786Y-38370000D01*
X159340511Y-38370000D01*
X158979753Y-38220200D01*
X158522254Y-38219801D01*
X158099428Y-38394509D01*
X157775646Y-38717727D01*
X157600200Y-39140247D01*
X157599801Y-39597746D01*
X157774509Y-40020572D01*
X158097727Y-40344354D01*
X158520247Y-40519800D01*
X158977746Y-40520199D01*
X159341256Y-40370000D01*
X160375000Y-40370000D01*
X160757684Y-40293880D01*
X161082107Y-40077107D01*
X161598029Y-39561185D01*
X161636120Y-39752683D01*
X161809502Y-40012167D01*
X161831069Y-40126789D01*
X161940575Y-40296965D01*
X162107661Y-40411130D01*
X162306000Y-40451295D01*
X162814000Y-40451295D01*
X162999289Y-40416431D01*
X163155000Y-40316233D01*
X163155000Y-42399904D01*
X157002703Y-48552201D01*
X156856381Y-48771186D01*
X156856381Y-48771187D01*
X156805000Y-49029498D01*
X156805000Y-51966605D01*
X156616400Y-51966605D01*
X156431111Y-52001469D01*
X156260935Y-52110975D01*
X156146770Y-52278061D01*
X156106605Y-52476400D01*
X156106605Y-54203600D01*
X156141469Y-54388889D01*
X156250975Y-54559065D01*
X156418061Y-54673230D01*
X156616400Y-54713395D01*
X156790440Y-54713395D01*
X156746323Y-54730596D01*
X156362313Y-55098855D01*
X156148461Y-55586036D01*
X156137325Y-55642030D01*
X156241652Y-55855000D01*
X157455000Y-55855000D01*
X157455000Y-55835000D01*
X157505000Y-55835000D01*
X157505000Y-55855000D01*
X158718348Y-55855000D01*
X158750000Y-55790387D01*
X158781652Y-55855000D01*
X159995000Y-55855000D01*
X159995000Y-55835000D01*
X160045000Y-55835000D01*
X160045000Y-55855000D01*
X161258348Y-55855000D01*
X161290000Y-55790387D01*
X161321652Y-55855000D01*
X162535000Y-55855000D01*
X162535000Y-55835000D01*
X162585000Y-55835000D01*
X162585000Y-55855000D01*
X163798348Y-55855000D01*
X163830000Y-55790387D01*
X163861652Y-55855000D01*
X165075000Y-55855000D01*
X165075000Y-55835000D01*
X165125000Y-55835000D01*
X165125000Y-55855000D01*
X166338348Y-55855000D01*
X166370000Y-55790387D01*
X166401652Y-55855000D01*
X167615000Y-55855000D01*
X167615000Y-55835000D01*
X167665000Y-55835000D01*
X167665000Y-55855000D01*
X168878348Y-55855000D01*
X168910000Y-55790387D01*
X168941652Y-55855000D01*
X170155000Y-55855000D01*
X170155000Y-55835000D01*
X170205000Y-55835000D01*
X170205000Y-55855000D01*
X171418348Y-55855000D01*
X171450000Y-55790387D01*
X171481652Y-55855000D01*
X172695000Y-55855000D01*
X172695000Y-55835000D01*
X172745000Y-55835000D01*
X172745000Y-55855000D01*
X173958348Y-55855000D01*
X173990000Y-55790387D01*
X174021652Y-55855000D01*
X175235000Y-55855000D01*
X175235000Y-55835000D01*
X175285000Y-55835000D01*
X175285000Y-55855000D01*
X176498348Y-55855000D01*
X176602675Y-55642030D01*
X176591539Y-55586036D01*
X176377687Y-55098855D01*
X176327310Y-55050544D01*
X179215000Y-55050544D01*
X179215000Y-55750000D01*
X179340000Y-55875000D01*
X180315000Y-55875000D01*
X180315000Y-54775000D01*
X180365000Y-54775000D01*
X180365000Y-55875000D01*
X181340000Y-55875000D01*
X181465000Y-55750000D01*
X181465000Y-55050544D01*
X181388880Y-54866773D01*
X181248227Y-54726121D01*
X181064456Y-54650000D01*
X180490000Y-54650000D01*
X180365000Y-54775000D01*
X180315000Y-54775000D01*
X180190000Y-54650000D01*
X179615544Y-54650000D01*
X179431773Y-54726121D01*
X179291120Y-54866773D01*
X179215000Y-55050544D01*
X176327310Y-55050544D01*
X175993677Y-54730596D01*
X175709000Y-54619602D01*
X175808542Y-54599802D01*
X176250926Y-54304211D01*
X176546517Y-53861827D01*
X176650315Y-53340000D01*
X176546517Y-52818173D01*
X176250926Y-52375789D01*
X175808542Y-52080198D01*
X175286715Y-51976400D01*
X175233285Y-51976400D01*
X174914420Y-52039826D01*
X170855000Y-47980406D01*
X170855000Y-46657607D01*
X170912773Y-46715380D01*
X171096544Y-46791500D01*
X171300000Y-46791500D01*
X171425000Y-46666500D01*
X171425000Y-45745000D01*
X171475000Y-45745000D01*
X171475000Y-46666500D01*
X171600000Y-46791500D01*
X171803456Y-46791500D01*
X171987227Y-46715380D01*
X172127879Y-46574727D01*
X172204000Y-46390956D01*
X172204000Y-45870000D01*
X172079000Y-45745000D01*
X171475000Y-45745000D01*
X171425000Y-45745000D01*
X171405000Y-45745000D01*
X171405000Y-45695000D01*
X171425000Y-45695000D01*
X171425000Y-44773500D01*
X171475000Y-44773500D01*
X171475000Y-45695000D01*
X172079000Y-45695000D01*
X172204000Y-45570000D01*
X172204000Y-45049044D01*
X172127879Y-44865273D01*
X171987227Y-44724620D01*
X171803456Y-44648500D01*
X171600000Y-44648500D01*
X171475000Y-44773500D01*
X171425000Y-44773500D01*
X171300000Y-44648500D01*
X171096544Y-44648500D01*
X170912773Y-44724620D01*
X170817018Y-44820375D01*
X170799425Y-44793035D01*
X170632339Y-44678870D01*
X170434000Y-44638705D01*
X169926000Y-44638705D01*
X169740711Y-44673569D01*
X169570535Y-44783075D01*
X169546063Y-44818891D01*
X169529425Y-44793035D01*
X169362339Y-44678870D01*
X169164000Y-44638705D01*
X168656000Y-44638705D01*
X168470711Y-44673569D01*
X168300535Y-44783075D01*
X168276063Y-44818891D01*
X168259425Y-44793035D01*
X168092339Y-44678870D01*
X167894000Y-44638705D01*
X167386000Y-44638705D01*
X167200711Y-44673569D01*
X167030535Y-44783075D01*
X167006063Y-44818891D01*
X166989425Y-44793035D01*
X166822339Y-44678870D01*
X166624000Y-44638705D01*
X166116000Y-44638705D01*
X165930711Y-44673569D01*
X165760535Y-44783075D01*
X165736063Y-44818891D01*
X165719425Y-44793035D01*
X165552339Y-44678870D01*
X165354000Y-44638705D01*
X164846000Y-44638705D01*
X164660711Y-44673569D01*
X164490535Y-44783075D01*
X164466063Y-44818891D01*
X164449425Y-44793035D01*
X164282339Y-44678870D01*
X164084000Y-44638705D01*
X163576000Y-44638705D01*
X163390711Y-44673569D01*
X163220535Y-44783075D01*
X163196063Y-44818891D01*
X163179425Y-44793035D01*
X163012339Y-44678870D01*
X162823469Y-44640623D01*
X164307297Y-43156795D01*
X164453619Y-42937810D01*
X164505000Y-42679498D01*
X164505000Y-40313654D01*
X164647661Y-40411130D01*
X164846000Y-40451295D01*
X165354000Y-40451295D01*
X165539289Y-40416431D01*
X165709465Y-40306925D01*
X165735790Y-40268397D01*
X165832773Y-40365380D01*
X166016544Y-40441500D01*
X166220000Y-40441500D01*
X166345000Y-40316500D01*
X166345000Y-39395000D01*
X166325000Y-39395000D01*
X166325000Y-39345000D01*
X166345000Y-39345000D01*
X166345000Y-38423500D01*
X166220000Y-38298500D01*
X166016544Y-38298500D01*
X165832773Y-38374620D01*
X165775000Y-38432393D01*
X165775000Y-36707629D01*
X166965000Y-37897629D01*
X166965000Y-38432393D01*
X166907227Y-38374620D01*
X166723456Y-38298500D01*
X166520000Y-38298500D01*
X166395000Y-38423500D01*
X166395000Y-39345000D01*
X166415000Y-39345000D01*
X166415000Y-39395000D01*
X166395000Y-39395000D01*
X166395000Y-40316500D01*
X166520000Y-40441500D01*
X166723456Y-40441500D01*
X166907227Y-40365380D01*
X166965000Y-40307607D01*
X166965000Y-40640000D01*
X167016381Y-40898312D01*
X167162703Y-41117297D01*
X168432703Y-42387297D01*
X168651688Y-42533619D01*
X168910000Y-42585000D01*
X176022000Y-42585000D01*
X176280312Y-42533619D01*
X176499297Y-42387297D01*
X181906594Y-36980000D01*
X185440000Y-36980000D01*
X185440000Y-37554456D01*
X185516121Y-37738227D01*
X185656773Y-37878880D01*
X185840544Y-37955000D01*
X186540000Y-37955000D01*
X186665000Y-37830000D01*
X186665000Y-36855000D01*
X185565000Y-36855000D01*
X185440000Y-36980000D01*
X181906594Y-36980000D01*
X182781050Y-36105544D01*
X185440000Y-36105544D01*
X185440000Y-36680000D01*
X185565000Y-36805000D01*
X186665000Y-36805000D01*
X186665000Y-35830000D01*
X186540000Y-35705000D01*
X185840544Y-35705000D01*
X185656773Y-35781120D01*
X185516121Y-35921773D01*
X185440000Y-36105544D01*
X182781050Y-36105544D01*
X183667594Y-35219000D01*
X192760406Y-35219000D01*
X193221564Y-35680158D01*
X192812254Y-35679801D01*
X192389428Y-35854509D01*
X192065646Y-36177727D01*
X191890200Y-36600247D01*
X191889801Y-37057746D01*
X192064509Y-37480572D01*
X192365000Y-37781587D01*
X192365000Y-38426346D01*
X192222339Y-38328870D01*
X192024000Y-38288705D01*
X191516000Y-38288705D01*
X191500000Y-38291716D01*
X191500000Y-38140000D01*
X191458215Y-37929931D01*
X191423880Y-37757316D01*
X191207107Y-37432893D01*
X190449795Y-36675581D01*
X190449795Y-36205000D01*
X190414931Y-36019711D01*
X190305425Y-35849535D01*
X190138339Y-35735370D01*
X189940000Y-35695205D01*
X188440000Y-35695205D01*
X188254711Y-35730069D01*
X188084535Y-35839575D01*
X187970370Y-36006661D01*
X187940000Y-36156631D01*
X187940000Y-36105544D01*
X187863879Y-35921773D01*
X187723227Y-35781120D01*
X187539456Y-35705000D01*
X186840000Y-35705000D01*
X186715000Y-35830000D01*
X186715000Y-36805000D01*
X186735000Y-36805000D01*
X186735000Y-36855000D01*
X186715000Y-36855000D01*
X186715000Y-37830000D01*
X186840000Y-37955000D01*
X187539456Y-37955000D01*
X187723227Y-37878880D01*
X187863879Y-37738227D01*
X187940000Y-37554456D01*
X187940000Y-37507057D01*
X187965069Y-37640289D01*
X188074575Y-37810465D01*
X188190000Y-37889332D01*
X188190000Y-38040787D01*
X187860786Y-38370000D01*
X187280511Y-38370000D01*
X186919753Y-38220200D01*
X186462254Y-38219801D01*
X186039428Y-38394509D01*
X185715646Y-38717727D01*
X185540200Y-39140247D01*
X185539801Y-39597746D01*
X185714509Y-40020572D01*
X186037727Y-40344354D01*
X186460247Y-40519800D01*
X186917746Y-40520199D01*
X187281256Y-40370000D01*
X188275000Y-40370000D01*
X188657684Y-40293880D01*
X188982107Y-40077107D01*
X189531392Y-39527821D01*
X189576120Y-39752683D01*
X189749502Y-40012167D01*
X189771069Y-40126789D01*
X189880575Y-40296965D01*
X190047661Y-40411130D01*
X190246000Y-40451295D01*
X190754000Y-40451295D01*
X190939289Y-40416431D01*
X191095000Y-40316233D01*
X191095000Y-42399904D01*
X184942703Y-48552201D01*
X184796381Y-48771186D01*
X184796381Y-48771187D01*
X184745000Y-49029498D01*
X184745000Y-51966605D01*
X184556400Y-51966605D01*
X184371111Y-52001469D01*
X184200935Y-52110975D01*
X184086770Y-52278061D01*
X184046605Y-52476400D01*
X184046605Y-54203600D01*
X184081469Y-54388889D01*
X184190975Y-54559065D01*
X184358061Y-54673230D01*
X184556400Y-54713395D01*
X184730440Y-54713395D01*
X184686323Y-54730596D01*
X184302313Y-55098855D01*
X184088461Y-55586036D01*
X184077325Y-55642030D01*
X184181652Y-55855000D01*
X185395000Y-55855000D01*
X185395000Y-55835000D01*
X185445000Y-55835000D01*
X185445000Y-55855000D01*
X186658348Y-55855000D01*
X186690000Y-55790387D01*
X186721652Y-55855000D01*
X187935000Y-55855000D01*
X187935000Y-55835000D01*
X187985000Y-55835000D01*
X187985000Y-55855000D01*
X189198348Y-55855000D01*
X189230000Y-55790387D01*
X189261652Y-55855000D01*
X190475000Y-55855000D01*
X190475000Y-55835000D01*
X190525000Y-55835000D01*
X190525000Y-55855000D01*
X191738348Y-55855000D01*
X191770000Y-55790387D01*
X191801652Y-55855000D01*
X193015000Y-55855000D01*
X193015000Y-55835000D01*
X193065000Y-55835000D01*
X193065000Y-55855000D01*
X194278348Y-55855000D01*
X194310000Y-55790387D01*
X194341652Y-55855000D01*
X195555000Y-55855000D01*
X195555000Y-55835000D01*
X195605000Y-55835000D01*
X195605000Y-55855000D01*
X196818348Y-55855000D01*
X196850000Y-55790387D01*
X196881652Y-55855000D01*
X198095000Y-55855000D01*
X198095000Y-55835000D01*
X198145000Y-55835000D01*
X198145000Y-55855000D01*
X199358348Y-55855000D01*
X199390000Y-55790387D01*
X199421652Y-55855000D01*
X200635000Y-55855000D01*
X200635000Y-55835000D01*
X200685000Y-55835000D01*
X200685000Y-55855000D01*
X201898348Y-55855000D01*
X201930000Y-55790387D01*
X201961652Y-55855000D01*
X203175000Y-55855000D01*
X203175000Y-55835000D01*
X203225000Y-55835000D01*
X203225000Y-55855000D01*
X204438348Y-55855000D01*
X204542675Y-55642030D01*
X204531539Y-55586036D01*
X204317687Y-55098855D01*
X204267310Y-55050544D01*
X207155000Y-55050544D01*
X207155000Y-55750000D01*
X207280000Y-55875000D01*
X208255000Y-55875000D01*
X208255000Y-54775000D01*
X208305000Y-54775000D01*
X208305000Y-55875000D01*
X209280000Y-55875000D01*
X209405000Y-55750000D01*
X209405000Y-55050544D01*
X209328880Y-54866773D01*
X209188227Y-54726121D01*
X209004456Y-54650000D01*
X208430000Y-54650000D01*
X208305000Y-54775000D01*
X208255000Y-54775000D01*
X208130000Y-54650000D01*
X207555544Y-54650000D01*
X207371773Y-54726121D01*
X207231120Y-54866773D01*
X207155000Y-55050544D01*
X204267310Y-55050544D01*
X203933677Y-54730596D01*
X203649000Y-54619602D01*
X203748542Y-54599802D01*
X204190926Y-54304211D01*
X204486517Y-53861827D01*
X204590315Y-53340000D01*
X204486517Y-52818173D01*
X204190926Y-52375789D01*
X203748542Y-52080198D01*
X203226715Y-51976400D01*
X203173285Y-51976400D01*
X202854420Y-52039826D01*
X198795000Y-47980406D01*
X198795000Y-46657607D01*
X198852773Y-46715380D01*
X199036544Y-46791500D01*
X199240000Y-46791500D01*
X199365000Y-46666500D01*
X199365000Y-45745000D01*
X199415000Y-45745000D01*
X199415000Y-46666500D01*
X199540000Y-46791500D01*
X199743456Y-46791500D01*
X199927227Y-46715380D01*
X200067879Y-46574727D01*
X200144000Y-46390956D01*
X200144000Y-45870000D01*
X200019000Y-45745000D01*
X199415000Y-45745000D01*
X199365000Y-45745000D01*
X199345000Y-45745000D01*
X199345000Y-45695000D01*
X199365000Y-45695000D01*
X199365000Y-44773500D01*
X199415000Y-44773500D01*
X199415000Y-45695000D01*
X200019000Y-45695000D01*
X200144000Y-45570000D01*
X200144000Y-45049044D01*
X200067879Y-44865273D01*
X199927227Y-44724620D01*
X199743456Y-44648500D01*
X199540000Y-44648500D01*
X199415000Y-44773500D01*
X199365000Y-44773500D01*
X199240000Y-44648500D01*
X199036544Y-44648500D01*
X198852773Y-44724620D01*
X198757018Y-44820375D01*
X198739425Y-44793035D01*
X198572339Y-44678870D01*
X198374000Y-44638705D01*
X197866000Y-44638705D01*
X197680711Y-44673569D01*
X197510535Y-44783075D01*
X197486063Y-44818891D01*
X197469425Y-44793035D01*
X197302339Y-44678870D01*
X197104000Y-44638705D01*
X196596000Y-44638705D01*
X196410711Y-44673569D01*
X196240535Y-44783075D01*
X196216063Y-44818891D01*
X196199425Y-44793035D01*
X196032339Y-44678870D01*
X195834000Y-44638705D01*
X195326000Y-44638705D01*
X195140711Y-44673569D01*
X194970535Y-44783075D01*
X194946063Y-44818891D01*
X194929425Y-44793035D01*
X194762339Y-44678870D01*
X194564000Y-44638705D01*
X194056000Y-44638705D01*
X193870711Y-44673569D01*
X193700535Y-44783075D01*
X193676063Y-44818891D01*
X193659425Y-44793035D01*
X193492339Y-44678870D01*
X193294000Y-44638705D01*
X192786000Y-44638705D01*
X192600711Y-44673569D01*
X192430535Y-44783075D01*
X192406063Y-44818891D01*
X192389425Y-44793035D01*
X192222339Y-44678870D01*
X192024000Y-44638705D01*
X191516000Y-44638705D01*
X191330711Y-44673569D01*
X191160535Y-44783075D01*
X191136063Y-44818891D01*
X191119425Y-44793035D01*
X190952339Y-44678870D01*
X190763469Y-44640623D01*
X192247297Y-43156795D01*
X192393619Y-42937810D01*
X192445000Y-42679498D01*
X192445000Y-40313654D01*
X192587661Y-40411130D01*
X192786000Y-40451295D01*
X193294000Y-40451295D01*
X193479289Y-40416431D01*
X193649465Y-40306925D01*
X193675790Y-40268397D01*
X193772773Y-40365380D01*
X193956544Y-40441500D01*
X194160000Y-40441500D01*
X194285000Y-40316500D01*
X194285000Y-39395000D01*
X194265000Y-39395000D01*
X194265000Y-39345000D01*
X194285000Y-39345000D01*
X194285000Y-38423500D01*
X194160000Y-38298500D01*
X193956544Y-38298500D01*
X193772773Y-38374620D01*
X193715000Y-38432393D01*
X193715000Y-37781106D01*
X194014354Y-37482273D01*
X194189800Y-37059753D01*
X194190158Y-36648752D01*
X194905000Y-37363594D01*
X194905000Y-38432393D01*
X194847227Y-38374620D01*
X194663456Y-38298500D01*
X194460000Y-38298500D01*
X194335000Y-38423500D01*
X194335000Y-39345000D01*
X194355000Y-39345000D01*
X194355000Y-39395000D01*
X194335000Y-39395000D01*
X194335000Y-40316500D01*
X194460000Y-40441500D01*
X194663456Y-40441500D01*
X194847227Y-40365380D01*
X194905000Y-40307607D01*
X194905000Y-40640000D01*
X194956381Y-40898312D01*
X195102703Y-41117297D01*
X196372703Y-42387297D01*
X196591688Y-42533619D01*
X196850000Y-42585000D01*
X204978000Y-42585000D01*
X205236312Y-42533619D01*
X205455297Y-42387297D01*
X210862594Y-36980000D01*
X213400000Y-36980000D01*
X213400000Y-37554456D01*
X213476121Y-37738227D01*
X213616773Y-37878880D01*
X213800544Y-37955000D01*
X214500000Y-37955000D01*
X214625000Y-37830000D01*
X214625000Y-36855000D01*
X213525000Y-36855000D01*
X213400000Y-36980000D01*
X210862594Y-36980000D01*
X211737050Y-36105544D01*
X213400000Y-36105544D01*
X213400000Y-36680000D01*
X213525000Y-36805000D01*
X214625000Y-36805000D01*
X214625000Y-35830000D01*
X214500000Y-35705000D01*
X213800544Y-35705000D01*
X213616773Y-35781120D01*
X213476121Y-35921773D01*
X213400000Y-36105544D01*
X211737050Y-36105544D01*
X212623594Y-35219000D01*
X220700406Y-35219000D01*
X221161564Y-35680158D01*
X220752254Y-35679801D01*
X220329428Y-35854509D01*
X220005646Y-36177727D01*
X219830200Y-36600247D01*
X219829801Y-37057746D01*
X220004509Y-37480572D01*
X220305000Y-37781587D01*
X220305000Y-38426346D01*
X220162339Y-38328870D01*
X219964000Y-38288705D01*
X219456000Y-38288705D01*
X219440000Y-38291716D01*
X219440000Y-38120000D01*
X219363880Y-37737317D01*
X219147107Y-37412893D01*
X219147104Y-37412891D01*
X218409795Y-36675581D01*
X218409795Y-36205000D01*
X218374931Y-36019711D01*
X218265425Y-35849535D01*
X218098339Y-35735370D01*
X217900000Y-35695205D01*
X216400000Y-35695205D01*
X216214711Y-35730069D01*
X216044535Y-35839575D01*
X215930370Y-36006661D01*
X215900000Y-36156631D01*
X215900000Y-36105544D01*
X215823879Y-35921773D01*
X215683227Y-35781120D01*
X215499456Y-35705000D01*
X214800000Y-35705000D01*
X214675000Y-35830000D01*
X214675000Y-36805000D01*
X214695000Y-36805000D01*
X214695000Y-36855000D01*
X214675000Y-36855000D01*
X214675000Y-37830000D01*
X214800000Y-37955000D01*
X215499456Y-37955000D01*
X215683227Y-37878880D01*
X215823879Y-37738227D01*
X215900000Y-37554456D01*
X215900000Y-37507057D01*
X215925069Y-37640289D01*
X216034575Y-37810465D01*
X216150000Y-37889332D01*
X216150000Y-38040787D01*
X215820786Y-38370000D01*
X215220511Y-38370000D01*
X214859753Y-38220200D01*
X214402254Y-38219801D01*
X213979428Y-38394509D01*
X213655646Y-38717727D01*
X213480200Y-39140247D01*
X213479801Y-39597746D01*
X213654509Y-40020572D01*
X213977727Y-40344354D01*
X214400247Y-40519800D01*
X214857746Y-40520199D01*
X215221256Y-40370000D01*
X216235000Y-40370000D01*
X216617684Y-40293880D01*
X216942107Y-40077107D01*
X217474711Y-39544503D01*
X217516120Y-39752683D01*
X217689502Y-40012167D01*
X217711069Y-40126789D01*
X217820575Y-40296965D01*
X217987661Y-40411130D01*
X218186000Y-40451295D01*
X218694000Y-40451295D01*
X218879289Y-40416431D01*
X219035000Y-40316233D01*
X219035000Y-42399904D01*
X212882703Y-48552201D01*
X212736381Y-48771186D01*
X212736381Y-48771187D01*
X212685000Y-49029498D01*
X212685000Y-51966605D01*
X212496400Y-51966605D01*
X212311111Y-52001469D01*
X212140935Y-52110975D01*
X212026770Y-52278061D01*
X211986605Y-52476400D01*
X211986605Y-54203600D01*
X212021469Y-54388889D01*
X212130975Y-54559065D01*
X212298061Y-54673230D01*
X212496400Y-54713395D01*
X212670440Y-54713395D01*
X212626323Y-54730596D01*
X212242313Y-55098855D01*
X212028461Y-55586036D01*
X212017325Y-55642030D01*
X212121652Y-55855000D01*
X213335000Y-55855000D01*
X213335000Y-55835000D01*
X213385000Y-55835000D01*
X213385000Y-55855000D01*
X214598348Y-55855000D01*
X214630000Y-55790387D01*
X214661652Y-55855000D01*
X215875000Y-55855000D01*
X215875000Y-55835000D01*
X215925000Y-55835000D01*
X215925000Y-55855000D01*
X217138348Y-55855000D01*
X217170000Y-55790387D01*
X217201652Y-55855000D01*
X218415000Y-55855000D01*
X218415000Y-55835000D01*
X218465000Y-55835000D01*
X218465000Y-55855000D01*
X219678348Y-55855000D01*
X219710000Y-55790387D01*
X219741652Y-55855000D01*
X220955000Y-55855000D01*
X220955000Y-55835000D01*
X221005000Y-55835000D01*
X221005000Y-55855000D01*
X222218348Y-55855000D01*
X222250000Y-55790387D01*
X222281652Y-55855000D01*
X223495000Y-55855000D01*
X223495000Y-55835000D01*
X223545000Y-55835000D01*
X223545000Y-55855000D01*
X224758348Y-55855000D01*
X224790000Y-55790387D01*
X224821652Y-55855000D01*
X226035000Y-55855000D01*
X226035000Y-55835000D01*
X226085000Y-55835000D01*
X226085000Y-55855000D01*
X227298348Y-55855000D01*
X227330000Y-55790387D01*
X227361652Y-55855000D01*
X228575000Y-55855000D01*
X228575000Y-55835000D01*
X228625000Y-55835000D01*
X228625000Y-55855000D01*
X229838348Y-55855000D01*
X229870000Y-55790387D01*
X229901652Y-55855000D01*
X231115000Y-55855000D01*
X231115000Y-55835000D01*
X231165000Y-55835000D01*
X231165000Y-55855000D01*
X232378348Y-55855000D01*
X232482675Y-55642030D01*
X232471539Y-55586036D01*
X232257687Y-55098855D01*
X232207310Y-55050544D01*
X235095000Y-55050544D01*
X235095000Y-55750000D01*
X235220000Y-55875000D01*
X236195000Y-55875000D01*
X236195000Y-54775000D01*
X236245000Y-54775000D01*
X236245000Y-55875000D01*
X237220000Y-55875000D01*
X237345000Y-55750000D01*
X237345000Y-55050544D01*
X237268880Y-54866773D01*
X237128227Y-54726121D01*
X236944456Y-54650000D01*
X236370000Y-54650000D01*
X236245000Y-54775000D01*
X236195000Y-54775000D01*
X236070000Y-54650000D01*
X235495544Y-54650000D01*
X235311773Y-54726121D01*
X235171120Y-54866773D01*
X235095000Y-55050544D01*
X232207310Y-55050544D01*
X231873677Y-54730596D01*
X231589000Y-54619602D01*
X231688542Y-54599802D01*
X232130926Y-54304211D01*
X232426517Y-53861827D01*
X232530315Y-53340000D01*
X232426517Y-52818173D01*
X232130926Y-52375789D01*
X231688542Y-52080198D01*
X231166715Y-51976400D01*
X231113285Y-51976400D01*
X230794420Y-52039826D01*
X226735000Y-47980406D01*
X226735000Y-46657607D01*
X226792773Y-46715380D01*
X226976544Y-46791500D01*
X227180000Y-46791500D01*
X227305000Y-46666500D01*
X227305000Y-45745000D01*
X227355000Y-45745000D01*
X227355000Y-46666500D01*
X227480000Y-46791500D01*
X227683456Y-46791500D01*
X227867227Y-46715380D01*
X228007879Y-46574727D01*
X228084000Y-46390956D01*
X228084000Y-45870000D01*
X227959000Y-45745000D01*
X227355000Y-45745000D01*
X227305000Y-45745000D01*
X227285000Y-45745000D01*
X227285000Y-45695000D01*
X227305000Y-45695000D01*
X227305000Y-44773500D01*
X227355000Y-44773500D01*
X227355000Y-45695000D01*
X227959000Y-45695000D01*
X228084000Y-45570000D01*
X228084000Y-45049044D01*
X228007879Y-44865273D01*
X227867227Y-44724620D01*
X227683456Y-44648500D01*
X227480000Y-44648500D01*
X227355000Y-44773500D01*
X227305000Y-44773500D01*
X227180000Y-44648500D01*
X226976544Y-44648500D01*
X226792773Y-44724620D01*
X226697018Y-44820375D01*
X226679425Y-44793035D01*
X226512339Y-44678870D01*
X226314000Y-44638705D01*
X225806000Y-44638705D01*
X225620711Y-44673569D01*
X225450535Y-44783075D01*
X225426063Y-44818891D01*
X225409425Y-44793035D01*
X225242339Y-44678870D01*
X225044000Y-44638705D01*
X224536000Y-44638705D01*
X224350711Y-44673569D01*
X224180535Y-44783075D01*
X224156063Y-44818891D01*
X224139425Y-44793035D01*
X223972339Y-44678870D01*
X223774000Y-44638705D01*
X223266000Y-44638705D01*
X223080711Y-44673569D01*
X222910535Y-44783075D01*
X222886063Y-44818891D01*
X222869425Y-44793035D01*
X222702339Y-44678870D01*
X222504000Y-44638705D01*
X221996000Y-44638705D01*
X221810711Y-44673569D01*
X221640535Y-44783075D01*
X221616063Y-44818891D01*
X221599425Y-44793035D01*
X221432339Y-44678870D01*
X221234000Y-44638705D01*
X220726000Y-44638705D01*
X220540711Y-44673569D01*
X220370535Y-44783075D01*
X220346063Y-44818891D01*
X220329425Y-44793035D01*
X220162339Y-44678870D01*
X219964000Y-44638705D01*
X219456000Y-44638705D01*
X219270711Y-44673569D01*
X219100535Y-44783075D01*
X219076063Y-44818891D01*
X219059425Y-44793035D01*
X218892339Y-44678870D01*
X218703469Y-44640623D01*
X220187297Y-43156795D01*
X220333619Y-42937810D01*
X220385000Y-42679498D01*
X220385000Y-40313654D01*
X220527661Y-40411130D01*
X220726000Y-40451295D01*
X221234000Y-40451295D01*
X221419289Y-40416431D01*
X221589465Y-40306925D01*
X221615790Y-40268397D01*
X221712773Y-40365380D01*
X221896544Y-40441500D01*
X222100000Y-40441500D01*
X222225000Y-40316500D01*
X222225000Y-39395000D01*
X222205000Y-39395000D01*
X222205000Y-39345000D01*
X222225000Y-39345000D01*
X222225000Y-38423500D01*
X222100000Y-38298500D01*
X221896544Y-38298500D01*
X221712773Y-38374620D01*
X221655000Y-38432393D01*
X221655000Y-37781106D01*
X221954354Y-37482273D01*
X222129800Y-37059753D01*
X222130158Y-36648752D01*
X222845000Y-37363594D01*
X222845000Y-38432393D01*
X222787227Y-38374620D01*
X222603456Y-38298500D01*
X222400000Y-38298500D01*
X222275000Y-38423500D01*
X222275000Y-39345000D01*
X222295000Y-39345000D01*
X222295000Y-39395000D01*
X222275000Y-39395000D01*
X222275000Y-40316500D01*
X222400000Y-40441500D01*
X222603456Y-40441500D01*
X222787227Y-40365380D01*
X222845000Y-40307607D01*
X222845000Y-40640000D01*
X222896381Y-40898312D01*
X223042703Y-41117297D01*
X224312703Y-42387297D01*
X224531688Y-42533619D01*
X224790000Y-42585000D01*
X232918000Y-42585000D01*
X233176312Y-42533619D01*
X233395297Y-42387297D01*
X238802594Y-36980000D01*
X241340000Y-36980000D01*
X241340000Y-37554456D01*
X241416121Y-37738227D01*
X241556773Y-37878880D01*
X241740544Y-37955000D01*
X242440000Y-37955000D01*
X242565000Y-37830000D01*
X242565000Y-36855000D01*
X241465000Y-36855000D01*
X241340000Y-36980000D01*
X238802594Y-36980000D01*
X239677050Y-36105544D01*
X241340000Y-36105544D01*
X241340000Y-36680000D01*
X241465000Y-36805000D01*
X242565000Y-36805000D01*
X242565000Y-35830000D01*
X242440000Y-35705000D01*
X241740544Y-35705000D01*
X241556773Y-35781120D01*
X241416121Y-35921773D01*
X241340000Y-36105544D01*
X239677050Y-36105544D01*
X240563594Y-35219000D01*
X248640406Y-35219000D01*
X249101564Y-35680158D01*
X248692254Y-35679801D01*
X248269428Y-35854509D01*
X247945646Y-36177727D01*
X247770200Y-36600247D01*
X247769801Y-37057746D01*
X247944509Y-37480572D01*
X248245000Y-37781587D01*
X248245000Y-38426346D01*
X248102339Y-38328870D01*
X247904000Y-38288705D01*
X247396000Y-38288705D01*
X247380000Y-38291716D01*
X247380000Y-38120000D01*
X247303880Y-37737317D01*
X247087107Y-37412893D01*
X247087104Y-37412891D01*
X246349795Y-36675581D01*
X246349795Y-36205000D01*
X246314931Y-36019711D01*
X246205425Y-35849535D01*
X246038339Y-35735370D01*
X245840000Y-35695205D01*
X244340000Y-35695205D01*
X244154711Y-35730069D01*
X243984535Y-35839575D01*
X243870370Y-36006661D01*
X243840000Y-36156631D01*
X243840000Y-36105544D01*
X243763879Y-35921773D01*
X243623227Y-35781120D01*
X243439456Y-35705000D01*
X242740000Y-35705000D01*
X242615000Y-35830000D01*
X242615000Y-36805000D01*
X242635000Y-36805000D01*
X242635000Y-36855000D01*
X242615000Y-36855000D01*
X242615000Y-37830000D01*
X242740000Y-37955000D01*
X243439456Y-37955000D01*
X243623227Y-37878880D01*
X243763879Y-37738227D01*
X243840000Y-37554456D01*
X243840000Y-37507057D01*
X243865069Y-37640289D01*
X243974575Y-37810465D01*
X244090000Y-37889332D01*
X244090000Y-38040787D01*
X243760786Y-38370000D01*
X243160511Y-38370000D01*
X242799753Y-38220200D01*
X242342254Y-38219801D01*
X241919428Y-38394509D01*
X241595646Y-38717727D01*
X241420200Y-39140247D01*
X241419801Y-39597746D01*
X241594509Y-40020572D01*
X241917727Y-40344354D01*
X242340247Y-40519800D01*
X242797746Y-40520199D01*
X243161256Y-40370000D01*
X244175000Y-40370000D01*
X244557684Y-40293880D01*
X244882107Y-40077107D01*
X245414711Y-39544503D01*
X245456120Y-39752683D01*
X245629502Y-40012167D01*
X245651069Y-40126789D01*
X245760575Y-40296965D01*
X245927661Y-40411130D01*
X246126000Y-40451295D01*
X246634000Y-40451295D01*
X246819289Y-40416431D01*
X246975000Y-40316233D01*
X246975000Y-42399904D01*
X240822703Y-48552201D01*
X240676381Y-48771186D01*
X240676381Y-48771187D01*
X240625000Y-49029498D01*
X240625000Y-51966605D01*
X240436400Y-51966605D01*
X240251111Y-52001469D01*
X240080935Y-52110975D01*
X239966770Y-52278061D01*
X239926605Y-52476400D01*
X239926605Y-54203600D01*
X239961469Y-54388889D01*
X240070975Y-54559065D01*
X240238061Y-54673230D01*
X240436400Y-54713395D01*
X240610440Y-54713395D01*
X240566323Y-54730596D01*
X240182313Y-55098855D01*
X239968461Y-55586036D01*
X239957325Y-55642030D01*
X240061652Y-55855000D01*
X241275000Y-55855000D01*
X241275000Y-55835000D01*
X241325000Y-55835000D01*
X241325000Y-55855000D01*
X242538348Y-55855000D01*
X242570000Y-55790387D01*
X242601652Y-55855000D01*
X243815000Y-55855000D01*
X243815000Y-55835000D01*
X243865000Y-55835000D01*
X243865000Y-55855000D01*
X245078348Y-55855000D01*
X245110000Y-55790387D01*
X245141652Y-55855000D01*
X246355000Y-55855000D01*
X246355000Y-55835000D01*
X246405000Y-55835000D01*
X246405000Y-55855000D01*
X247618348Y-55855000D01*
X247650000Y-55790387D01*
X247681652Y-55855000D01*
X248895000Y-55855000D01*
X248895000Y-55835000D01*
X248945000Y-55835000D01*
X248945000Y-55855000D01*
X250158348Y-55855000D01*
X250190000Y-55790387D01*
X250221652Y-55855000D01*
X251435000Y-55855000D01*
X251435000Y-55835000D01*
X251485000Y-55835000D01*
X251485000Y-55855000D01*
X252698348Y-55855000D01*
X252730000Y-55790387D01*
X252761652Y-55855000D01*
X253975000Y-55855000D01*
X253975000Y-55835000D01*
X254025000Y-55835000D01*
X254025000Y-55855000D01*
X255238348Y-55855000D01*
X255270000Y-55790387D01*
X255301652Y-55855000D01*
X256515000Y-55855000D01*
X256515000Y-55835000D01*
X256565000Y-55835000D01*
X256565000Y-55855000D01*
X257778348Y-55855000D01*
X257810000Y-55790387D01*
X257841652Y-55855000D01*
X259055000Y-55855000D01*
X259055000Y-55835000D01*
X259105000Y-55835000D01*
X259105000Y-55855000D01*
X259125000Y-55855000D01*
X259125000Y-55905000D01*
X259105000Y-55905000D01*
X259105000Y-55925000D01*
X259055000Y-55925000D01*
X259055000Y-55905000D01*
X257841652Y-55905000D01*
X257810000Y-55969613D01*
X257778348Y-55905000D01*
X256565000Y-55905000D01*
X256565000Y-55925000D01*
X256515000Y-55925000D01*
X256515000Y-55905000D01*
X255301652Y-55905000D01*
X255270000Y-55969613D01*
X255238348Y-55905000D01*
X254025000Y-55905000D01*
X254025000Y-55925000D01*
X253975000Y-55925000D01*
X253975000Y-55905000D01*
X252761652Y-55905000D01*
X252730000Y-55969613D01*
X252698348Y-55905000D01*
X251485000Y-55905000D01*
X251485000Y-55925000D01*
X251435000Y-55925000D01*
X251435000Y-55905000D01*
X250221652Y-55905000D01*
X250190000Y-55969613D01*
X250158348Y-55905000D01*
X248945000Y-55905000D01*
X248945000Y-55925000D01*
X248895000Y-55925000D01*
X248895000Y-55905000D01*
X247681652Y-55905000D01*
X247650000Y-55969613D01*
X247618348Y-55905000D01*
X246405000Y-55905000D01*
X246405000Y-55925000D01*
X246355000Y-55925000D01*
X246355000Y-55905000D01*
X245141652Y-55905000D01*
X245110000Y-55969613D01*
X245078348Y-55905000D01*
X243865000Y-55905000D01*
X243865000Y-55925000D01*
X243815000Y-55925000D01*
X243815000Y-55905000D01*
X242601652Y-55905000D01*
X242570000Y-55969613D01*
X242538348Y-55905000D01*
X241325000Y-55905000D01*
X241325000Y-55925000D01*
X241275000Y-55925000D01*
X241275000Y-55905000D01*
X240061652Y-55905000D01*
X239957325Y-56117970D01*
X239968461Y-56173964D01*
X240182313Y-56661145D01*
X240427155Y-56895944D01*
X240251111Y-56929069D01*
X240080935Y-57038575D01*
X239966770Y-57205661D01*
X239931465Y-57380000D01*
X237265421Y-57380000D01*
X237210425Y-57294535D01*
X237043339Y-57180370D01*
X236893369Y-57150000D01*
X236944456Y-57150000D01*
X237128227Y-57073879D01*
X237268880Y-56933227D01*
X237345000Y-56749456D01*
X237345000Y-56050000D01*
X237220000Y-55925000D01*
X236245000Y-55925000D01*
X236245000Y-55945000D01*
X236195000Y-55945000D01*
X236195000Y-55925000D01*
X235220000Y-55925000D01*
X235095000Y-56050000D01*
X235095000Y-56749456D01*
X235171120Y-56933227D01*
X235311773Y-57073879D01*
X235495544Y-57150000D01*
X235542943Y-57150000D01*
X235409711Y-57175069D01*
X235239535Y-57284575D01*
X235174334Y-57380000D01*
X232175246Y-57380000D01*
X232104211Y-57273689D01*
X231788383Y-57062660D01*
X231873677Y-57029404D01*
X232257687Y-56661145D01*
X232471539Y-56173964D01*
X232482675Y-56117970D01*
X232378348Y-55905000D01*
X231165000Y-55905000D01*
X231165000Y-55925000D01*
X231115000Y-55925000D01*
X231115000Y-55905000D01*
X229901652Y-55905000D01*
X229870000Y-55969613D01*
X229838348Y-55905000D01*
X228625000Y-55905000D01*
X228625000Y-55925000D01*
X228575000Y-55925000D01*
X228575000Y-55905000D01*
X227361652Y-55905000D01*
X227330000Y-55969613D01*
X227298348Y-55905000D01*
X226085000Y-55905000D01*
X226085000Y-55925000D01*
X226035000Y-55925000D01*
X226035000Y-55905000D01*
X224821652Y-55905000D01*
X224790000Y-55969613D01*
X224758348Y-55905000D01*
X223545000Y-55905000D01*
X223545000Y-55925000D01*
X223495000Y-55925000D01*
X223495000Y-55905000D01*
X222281652Y-55905000D01*
X222250000Y-55969613D01*
X222218348Y-55905000D01*
X221005000Y-55905000D01*
X221005000Y-55925000D01*
X220955000Y-55925000D01*
X220955000Y-55905000D01*
X219741652Y-55905000D01*
X219710000Y-55969613D01*
X219678348Y-55905000D01*
X218465000Y-55905000D01*
X218465000Y-55925000D01*
X218415000Y-55925000D01*
X218415000Y-55905000D01*
X217201652Y-55905000D01*
X217170000Y-55969613D01*
X217138348Y-55905000D01*
X215925000Y-55905000D01*
X215925000Y-55925000D01*
X215875000Y-55925000D01*
X215875000Y-55905000D01*
X214661652Y-55905000D01*
X214630000Y-55969613D01*
X214598348Y-55905000D01*
X213385000Y-55905000D01*
X213385000Y-55925000D01*
X213335000Y-55925000D01*
X213335000Y-55905000D01*
X212121652Y-55905000D01*
X212017325Y-56117970D01*
X212028461Y-56173964D01*
X212242313Y-56661145D01*
X212487155Y-56895944D01*
X212311111Y-56929069D01*
X212140935Y-57038575D01*
X212026770Y-57205661D01*
X211991465Y-57380000D01*
X209325421Y-57380000D01*
X209270425Y-57294535D01*
X209103339Y-57180370D01*
X208953369Y-57150000D01*
X209004456Y-57150000D01*
X209188227Y-57073879D01*
X209328880Y-56933227D01*
X209405000Y-56749456D01*
X209405000Y-56050000D01*
X209280000Y-55925000D01*
X208305000Y-55925000D01*
X208305000Y-55945000D01*
X208255000Y-55945000D01*
X208255000Y-55925000D01*
X207280000Y-55925000D01*
X207155000Y-56050000D01*
X207155000Y-56749456D01*
X207231120Y-56933227D01*
X207371773Y-57073879D01*
X207555544Y-57150000D01*
X207602943Y-57150000D01*
X207469711Y-57175069D01*
X207299535Y-57284575D01*
X207234334Y-57380000D01*
X204235246Y-57380000D01*
X204164211Y-57273689D01*
X203848383Y-57062660D01*
X203933677Y-57029404D01*
X204317687Y-56661145D01*
X204531539Y-56173964D01*
X204542675Y-56117970D01*
X204438348Y-55905000D01*
X203225000Y-55905000D01*
X203225000Y-55925000D01*
X203175000Y-55925000D01*
X203175000Y-55905000D01*
X201961652Y-55905000D01*
X201930000Y-55969613D01*
X201898348Y-55905000D01*
X200685000Y-55905000D01*
X200685000Y-55925000D01*
X200635000Y-55925000D01*
X200635000Y-55905000D01*
X199421652Y-55905000D01*
X199390000Y-55969613D01*
X199358348Y-55905000D01*
X198145000Y-55905000D01*
X198145000Y-55925000D01*
X198095000Y-55925000D01*
X198095000Y-55905000D01*
X196881652Y-55905000D01*
X196850000Y-55969613D01*
X196818348Y-55905000D01*
X195605000Y-55905000D01*
X195605000Y-55925000D01*
X195555000Y-55925000D01*
X195555000Y-55905000D01*
X194341652Y-55905000D01*
X194310000Y-55969613D01*
X194278348Y-55905000D01*
X193065000Y-55905000D01*
X193065000Y-55925000D01*
X193015000Y-55925000D01*
X193015000Y-55905000D01*
X191801652Y-55905000D01*
X191770000Y-55969613D01*
X191738348Y-55905000D01*
X190525000Y-55905000D01*
X190525000Y-55925000D01*
X190475000Y-55925000D01*
X190475000Y-55905000D01*
X189261652Y-55905000D01*
X189230000Y-55969613D01*
X189198348Y-55905000D01*
X187985000Y-55905000D01*
X187985000Y-55925000D01*
X187935000Y-55925000D01*
X187935000Y-55905000D01*
X186721652Y-55905000D01*
X186690000Y-55969613D01*
X186658348Y-55905000D01*
X185445000Y-55905000D01*
X185445000Y-55925000D01*
X185395000Y-55925000D01*
X185395000Y-55905000D01*
X184181652Y-55905000D01*
X184077325Y-56117970D01*
X184088461Y-56173964D01*
X184302313Y-56661145D01*
X184547155Y-56895944D01*
X184371111Y-56929069D01*
X184200935Y-57038575D01*
X184086770Y-57205661D01*
X184051465Y-57380000D01*
X181385421Y-57380000D01*
X181330425Y-57294535D01*
X181163339Y-57180370D01*
X181013369Y-57150000D01*
X181064456Y-57150000D01*
X181248227Y-57073879D01*
X181388880Y-56933227D01*
X181465000Y-56749456D01*
X181465000Y-56050000D01*
X181340000Y-55925000D01*
X180365000Y-55925000D01*
X180365000Y-55945000D01*
X180315000Y-55945000D01*
X180315000Y-55925000D01*
X179340000Y-55925000D01*
X179215000Y-56050000D01*
X179215000Y-56749456D01*
X179291120Y-56933227D01*
X179431773Y-57073879D01*
X179615544Y-57150000D01*
X179662943Y-57150000D01*
X179529711Y-57175069D01*
X179359535Y-57284575D01*
X179294334Y-57380000D01*
X176295246Y-57380000D01*
X176224211Y-57273689D01*
X175908383Y-57062660D01*
X175993677Y-57029404D01*
X176377687Y-56661145D01*
X176591539Y-56173964D01*
X176602675Y-56117970D01*
X176498348Y-55905000D01*
X175285000Y-55905000D01*
X175285000Y-55925000D01*
X175235000Y-55925000D01*
X175235000Y-55905000D01*
X174021652Y-55905000D01*
X173990000Y-55969613D01*
X173958348Y-55905000D01*
X172745000Y-55905000D01*
X172745000Y-55925000D01*
X172695000Y-55925000D01*
X172695000Y-55905000D01*
X171481652Y-55905000D01*
X171450000Y-55969613D01*
X171418348Y-55905000D01*
X170205000Y-55905000D01*
X170205000Y-55925000D01*
X170155000Y-55925000D01*
X170155000Y-55905000D01*
X168941652Y-55905000D01*
X168910000Y-55969613D01*
X168878348Y-55905000D01*
X167665000Y-55905000D01*
X167665000Y-55925000D01*
X167615000Y-55925000D01*
X167615000Y-55905000D01*
X166401652Y-55905000D01*
X166370000Y-55969613D01*
X166338348Y-55905000D01*
X165125000Y-55905000D01*
X165125000Y-55925000D01*
X165075000Y-55925000D01*
X165075000Y-55905000D01*
X163861652Y-55905000D01*
X163830000Y-55969613D01*
X163798348Y-55905000D01*
X162585000Y-55905000D01*
X162585000Y-55925000D01*
X162535000Y-55925000D01*
X162535000Y-55905000D01*
X161321652Y-55905000D01*
X161290000Y-55969613D01*
X161258348Y-55905000D01*
X160045000Y-55905000D01*
X160045000Y-55925000D01*
X159995000Y-55925000D01*
X159995000Y-55905000D01*
X158781652Y-55905000D01*
X158750000Y-55969613D01*
X158718348Y-55905000D01*
X157505000Y-55905000D01*
X157505000Y-55925000D01*
X157455000Y-55925000D01*
X157455000Y-55905000D01*
X156241652Y-55905000D01*
X156137325Y-56117970D01*
X156148461Y-56173964D01*
X156362313Y-56661145D01*
X156607155Y-56895944D01*
X156431111Y-56929069D01*
X156260935Y-57038575D01*
X156146770Y-57205661D01*
X156111465Y-57380000D01*
X154728290Y-57380000D01*
X154660425Y-57274535D01*
X154493339Y-57160370D01*
X154343369Y-57130000D01*
X154394456Y-57130000D01*
X154578227Y-57053879D01*
X154718880Y-56913227D01*
X154795000Y-56729456D01*
X154795000Y-56030000D01*
X154670000Y-55905000D01*
X153695000Y-55905000D01*
X153695000Y-55925000D01*
X153645000Y-55925000D01*
X153645000Y-55905000D01*
X152670000Y-55905000D01*
X152545000Y-56030000D01*
X152545000Y-56729456D01*
X152621120Y-56913227D01*
X152761773Y-57053879D01*
X152945544Y-57130000D01*
X152992943Y-57130000D01*
X152859711Y-57155069D01*
X152689535Y-57264575D01*
X152575370Y-57431661D01*
X152535205Y-57630000D01*
X152535205Y-59130000D01*
X152570069Y-59315289D01*
X152679575Y-59485465D01*
X152846661Y-59599630D01*
X153045000Y-59639795D01*
X154295000Y-59639795D01*
X154480289Y-59604931D01*
X154650465Y-59495425D01*
X154729332Y-59380000D01*
X156106605Y-59380000D01*
X156106605Y-59436000D01*
X156141469Y-59621289D01*
X156250975Y-59791465D01*
X156418061Y-59905630D01*
X156616400Y-59945795D01*
X158343600Y-59945795D01*
X158528889Y-59910931D01*
X158699065Y-59801425D01*
X158813230Y-59634339D01*
X158853395Y-59436000D01*
X158853395Y-59380000D01*
X158931300Y-59380000D01*
X159055789Y-59566311D01*
X159498173Y-59861902D01*
X160020000Y-59965700D01*
X160541827Y-59861902D01*
X160984211Y-59566311D01*
X161108700Y-59380000D01*
X161471300Y-59380000D01*
X161595789Y-59566311D01*
X162038173Y-59861902D01*
X162560000Y-59965700D01*
X163081827Y-59861902D01*
X163524211Y-59566311D01*
X163648700Y-59380000D01*
X164011300Y-59380000D01*
X164135789Y-59566311D01*
X164578173Y-59861902D01*
X165100000Y-59965700D01*
X165621827Y-59861902D01*
X166064211Y-59566311D01*
X166188700Y-59380000D01*
X166551300Y-59380000D01*
X166675789Y-59566311D01*
X167118173Y-59861902D01*
X167640000Y-59965700D01*
X168161827Y-59861902D01*
X168604211Y-59566311D01*
X168728700Y-59380000D01*
X169091300Y-59380000D01*
X169215789Y-59566311D01*
X169658173Y-59861902D01*
X170180000Y-59965700D01*
X170701827Y-59861902D01*
X171144211Y-59566311D01*
X171268700Y-59380000D01*
X171631300Y-59380000D01*
X171755789Y-59566311D01*
X172198173Y-59861902D01*
X172720000Y-59965700D01*
X173241827Y-59861902D01*
X173684211Y-59566311D01*
X173808700Y-59380000D01*
X174171300Y-59380000D01*
X174295789Y-59566311D01*
X174738173Y-59861902D01*
X175260000Y-59965700D01*
X175781827Y-59861902D01*
X176224211Y-59566311D01*
X176348700Y-59380000D01*
X179268840Y-59380000D01*
X179349575Y-59505465D01*
X179516661Y-59619630D01*
X179715000Y-59659795D01*
X180965000Y-59659795D01*
X181150289Y-59624931D01*
X181320465Y-59515425D01*
X181412997Y-59380000D01*
X184046605Y-59380000D01*
X184046605Y-59436000D01*
X184081469Y-59621289D01*
X184190975Y-59791465D01*
X184358061Y-59905630D01*
X184556400Y-59945795D01*
X186283600Y-59945795D01*
X186468889Y-59910931D01*
X186639065Y-59801425D01*
X186753230Y-59634339D01*
X186793395Y-59436000D01*
X186793395Y-59380000D01*
X186871300Y-59380000D01*
X186995789Y-59566311D01*
X187438173Y-59861902D01*
X187960000Y-59965700D01*
X188481827Y-59861902D01*
X188924211Y-59566311D01*
X189048700Y-59380000D01*
X189411300Y-59380000D01*
X189535789Y-59566311D01*
X189978173Y-59861902D01*
X190500000Y-59965700D01*
X191021827Y-59861902D01*
X191464211Y-59566311D01*
X191588700Y-59380000D01*
X191951300Y-59380000D01*
X192075789Y-59566311D01*
X192518173Y-59861902D01*
X193040000Y-59965700D01*
X193561827Y-59861902D01*
X194004211Y-59566311D01*
X194128700Y-59380000D01*
X194491300Y-59380000D01*
X194615789Y-59566311D01*
X195058173Y-59861902D01*
X195580000Y-59965700D01*
X196101827Y-59861902D01*
X196544211Y-59566311D01*
X196668700Y-59380000D01*
X197031300Y-59380000D01*
X197155789Y-59566311D01*
X197598173Y-59861902D01*
X198120000Y-59965700D01*
X198641827Y-59861902D01*
X199084211Y-59566311D01*
X199208700Y-59380000D01*
X199571300Y-59380000D01*
X199695789Y-59566311D01*
X200138173Y-59861902D01*
X200660000Y-59965700D01*
X201181827Y-59861902D01*
X201624211Y-59566311D01*
X201748700Y-59380000D01*
X202111300Y-59380000D01*
X202235789Y-59566311D01*
X202678173Y-59861902D01*
X203200000Y-59965700D01*
X203721827Y-59861902D01*
X204164211Y-59566311D01*
X204288700Y-59380000D01*
X207208840Y-59380000D01*
X207289575Y-59505465D01*
X207456661Y-59619630D01*
X207655000Y-59659795D01*
X208905000Y-59659795D01*
X209090289Y-59624931D01*
X209260465Y-59515425D01*
X209352997Y-59380000D01*
X211986605Y-59380000D01*
X211986605Y-59436000D01*
X212021469Y-59621289D01*
X212130975Y-59791465D01*
X212298061Y-59905630D01*
X212496400Y-59945795D01*
X214223600Y-59945795D01*
X214408889Y-59910931D01*
X214579065Y-59801425D01*
X214693230Y-59634339D01*
X214733395Y-59436000D01*
X214733395Y-59380000D01*
X214811300Y-59380000D01*
X214935789Y-59566311D01*
X215378173Y-59861902D01*
X215900000Y-59965700D01*
X216421827Y-59861902D01*
X216864211Y-59566311D01*
X216988700Y-59380000D01*
X217351300Y-59380000D01*
X217475789Y-59566311D01*
X217918173Y-59861902D01*
X218440000Y-59965700D01*
X218961827Y-59861902D01*
X219404211Y-59566311D01*
X219528700Y-59380000D01*
X219891300Y-59380000D01*
X220015789Y-59566311D01*
X220458173Y-59861902D01*
X220980000Y-59965700D01*
X221501827Y-59861902D01*
X221944211Y-59566311D01*
X222068700Y-59380000D01*
X222431300Y-59380000D01*
X222555789Y-59566311D01*
X222998173Y-59861902D01*
X223520000Y-59965700D01*
X224041827Y-59861902D01*
X224484211Y-59566311D01*
X224608700Y-59380000D01*
X224971300Y-59380000D01*
X225095789Y-59566311D01*
X225538173Y-59861902D01*
X226060000Y-59965700D01*
X226581827Y-59861902D01*
X227024211Y-59566311D01*
X227148700Y-59380000D01*
X227511300Y-59380000D01*
X227635789Y-59566311D01*
X228078173Y-59861902D01*
X228600000Y-59965700D01*
X229121827Y-59861902D01*
X229564211Y-59566311D01*
X229688700Y-59380000D01*
X230051300Y-59380000D01*
X230175789Y-59566311D01*
X230618173Y-59861902D01*
X231140000Y-59965700D01*
X231661827Y-59861902D01*
X232104211Y-59566311D01*
X232228700Y-59380000D01*
X235148840Y-59380000D01*
X235229575Y-59505465D01*
X235396661Y-59619630D01*
X235595000Y-59659795D01*
X236845000Y-59659795D01*
X237030289Y-59624931D01*
X237200465Y-59515425D01*
X237292997Y-59380000D01*
X239926605Y-59380000D01*
X239926605Y-59436000D01*
X239961469Y-59621289D01*
X240070975Y-59791465D01*
X240238061Y-59905630D01*
X240436400Y-59945795D01*
X242163600Y-59945795D01*
X242348889Y-59910931D01*
X242519065Y-59801425D01*
X242633230Y-59634339D01*
X242673395Y-59436000D01*
X242673395Y-59380000D01*
X242751300Y-59380000D01*
X242875789Y-59566311D01*
X243318173Y-59861902D01*
X243840000Y-59965700D01*
X244361827Y-59861902D01*
X244804211Y-59566311D01*
X244928700Y-59380000D01*
X245291300Y-59380000D01*
X245415789Y-59566311D01*
X245858173Y-59861902D01*
X246380000Y-59965700D01*
X246901827Y-59861902D01*
X247344211Y-59566311D01*
X247468700Y-59380000D01*
X247831300Y-59380000D01*
X247955789Y-59566311D01*
X248398173Y-59861902D01*
X248920000Y-59965700D01*
X249441827Y-59861902D01*
X249884211Y-59566311D01*
X250008700Y-59380000D01*
X250371300Y-59380000D01*
X250495789Y-59566311D01*
X250938173Y-59861902D01*
X251460000Y-59965700D01*
X251981827Y-59861902D01*
X252424211Y-59566311D01*
X252548700Y-59380000D01*
X252911300Y-59380000D01*
X253035789Y-59566311D01*
X253478173Y-59861902D01*
X254000000Y-59965700D01*
X254521827Y-59861902D01*
X254964211Y-59566311D01*
X255088700Y-59380000D01*
X255451300Y-59380000D01*
X255575789Y-59566311D01*
X256018173Y-59861902D01*
X256540000Y-59965700D01*
X257061827Y-59861902D01*
X257504211Y-59566311D01*
X257628700Y-59380000D01*
X257991300Y-59380000D01*
X258115789Y-59566311D01*
X258558173Y-59861902D01*
X259080000Y-59965700D01*
X259601827Y-59861902D01*
X260044211Y-59566311D01*
X260339802Y-59123927D01*
X260443600Y-58602100D01*
X260443600Y-58470614D01*
X262034213Y-56880000D01*
X262634205Y-56880000D01*
X262634205Y-56896000D01*
X262669069Y-57081289D01*
X262778575Y-57251465D01*
X262945661Y-57365630D01*
X263144000Y-57405795D01*
X265176000Y-57405795D01*
X265361289Y-57370931D01*
X265531465Y-57261425D01*
X265645630Y-57094339D01*
X265685795Y-56896000D01*
X265685795Y-54864000D01*
X265650931Y-54678711D01*
X265541425Y-54508535D01*
X265374339Y-54394370D01*
X265235848Y-54366325D01*
X265439366Y-54153317D01*
X265653223Y-53601815D01*
X265550796Y-53365000D01*
X264185000Y-53365000D01*
X264185000Y-53385000D01*
X264135000Y-53385000D01*
X264135000Y-53365000D01*
X262769204Y-53365000D01*
X262666777Y-53601815D01*
X262880634Y-54153317D01*
X263083457Y-54365597D01*
X262958711Y-54389069D01*
X262788535Y-54498575D01*
X262674370Y-54665661D01*
X262634205Y-54864000D01*
X262634205Y-54880000D01*
X261620000Y-54880000D01*
X261237317Y-54956120D01*
X260912893Y-55172893D01*
X260912891Y-55172896D01*
X260402431Y-55683356D01*
X260422675Y-55642030D01*
X260411539Y-55586036D01*
X260197687Y-55098855D01*
X259813677Y-54730596D01*
X259529000Y-54619602D01*
X259628542Y-54599802D01*
X260070926Y-54304211D01*
X260366517Y-53861827D01*
X260470315Y-53340000D01*
X260418237Y-53078185D01*
X262666777Y-53078185D01*
X262769204Y-53315000D01*
X264135000Y-53315000D01*
X264135000Y-51949225D01*
X264185000Y-51949225D01*
X264185000Y-53315000D01*
X265550796Y-53315000D01*
X265653223Y-53078185D01*
X265439366Y-52526683D01*
X265030737Y-52099001D01*
X264489546Y-51860250D01*
X264421815Y-51846779D01*
X264185000Y-51949225D01*
X264135000Y-51949225D01*
X263898185Y-51846779D01*
X263830454Y-51860250D01*
X263289263Y-52099001D01*
X262880634Y-52526683D01*
X262666777Y-53078185D01*
X260418237Y-53078185D01*
X260366517Y-52818173D01*
X260070926Y-52375789D01*
X259628542Y-52080198D01*
X259106715Y-51976400D01*
X259053285Y-51976400D01*
X258734420Y-52039826D01*
X254675000Y-47980406D01*
X254675000Y-46657607D01*
X254732773Y-46715380D01*
X254916544Y-46791500D01*
X255120000Y-46791500D01*
X255245000Y-46666500D01*
X255245000Y-45745000D01*
X255295000Y-45745000D01*
X255295000Y-46666500D01*
X255420000Y-46791500D01*
X255623456Y-46791500D01*
X255807227Y-46715380D01*
X255947879Y-46574727D01*
X256024000Y-46390956D01*
X256024000Y-45870000D01*
X255899000Y-45745000D01*
X255295000Y-45745000D01*
X255245000Y-45745000D01*
X255225000Y-45745000D01*
X255225000Y-45695000D01*
X255245000Y-45695000D01*
X255245000Y-44773500D01*
X255295000Y-44773500D01*
X255295000Y-45695000D01*
X255899000Y-45695000D01*
X256024000Y-45570000D01*
X256024000Y-45049044D01*
X255947879Y-44865273D01*
X255807227Y-44724620D01*
X255623456Y-44648500D01*
X255420000Y-44648500D01*
X255295000Y-44773500D01*
X255245000Y-44773500D01*
X255120000Y-44648500D01*
X254916544Y-44648500D01*
X254732773Y-44724620D01*
X254637018Y-44820375D01*
X254619425Y-44793035D01*
X254452339Y-44678870D01*
X254254000Y-44638705D01*
X253746000Y-44638705D01*
X253560711Y-44673569D01*
X253390535Y-44783075D01*
X253366063Y-44818891D01*
X253349425Y-44793035D01*
X253182339Y-44678870D01*
X252984000Y-44638705D01*
X252476000Y-44638705D01*
X252290711Y-44673569D01*
X252120535Y-44783075D01*
X252096063Y-44818891D01*
X252079425Y-44793035D01*
X251912339Y-44678870D01*
X251714000Y-44638705D01*
X251206000Y-44638705D01*
X251020711Y-44673569D01*
X250850535Y-44783075D01*
X250826063Y-44818891D01*
X250809425Y-44793035D01*
X250642339Y-44678870D01*
X250444000Y-44638705D01*
X249936000Y-44638705D01*
X249750711Y-44673569D01*
X249580535Y-44783075D01*
X249556063Y-44818891D01*
X249539425Y-44793035D01*
X249372339Y-44678870D01*
X249174000Y-44638705D01*
X248666000Y-44638705D01*
X248480711Y-44673569D01*
X248310535Y-44783075D01*
X248286063Y-44818891D01*
X248269425Y-44793035D01*
X248102339Y-44678870D01*
X247904000Y-44638705D01*
X247396000Y-44638705D01*
X247210711Y-44673569D01*
X247040535Y-44783075D01*
X247016063Y-44818891D01*
X246999425Y-44793035D01*
X246832339Y-44678870D01*
X246643469Y-44640623D01*
X248127297Y-43156795D01*
X248273619Y-42937810D01*
X248325000Y-42679498D01*
X248325000Y-40313654D01*
X248467661Y-40411130D01*
X248666000Y-40451295D01*
X249174000Y-40451295D01*
X249359289Y-40416431D01*
X249529465Y-40306925D01*
X249555790Y-40268397D01*
X249652773Y-40365380D01*
X249836544Y-40441500D01*
X250040000Y-40441500D01*
X250165000Y-40316500D01*
X250165000Y-39395000D01*
X250145000Y-39395000D01*
X250145000Y-39345000D01*
X250165000Y-39345000D01*
X250165000Y-38423500D01*
X250040000Y-38298500D01*
X249836544Y-38298500D01*
X249652773Y-38374620D01*
X249595000Y-38432393D01*
X249595000Y-37781106D01*
X249894354Y-37482273D01*
X250069800Y-37059753D01*
X250070158Y-36648752D01*
X250785000Y-37363594D01*
X250785000Y-38432393D01*
X250727227Y-38374620D01*
X250543456Y-38298500D01*
X250340000Y-38298500D01*
X250215000Y-38423500D01*
X250215000Y-39345000D01*
X250235000Y-39345000D01*
X250235000Y-39395000D01*
X250215000Y-39395000D01*
X250215000Y-40316500D01*
X250340000Y-40441500D01*
X250543456Y-40441500D01*
X250727227Y-40365380D01*
X250785000Y-40307607D01*
X250785000Y-40640000D01*
X250836381Y-40898312D01*
X250982703Y-41117297D01*
X252252703Y-42387297D01*
X252471688Y-42533619D01*
X252730000Y-42585000D01*
X257657600Y-42585000D01*
X257915912Y-42533619D01*
X258134897Y-42387297D01*
X259644224Y-40877970D01*
X262664925Y-40877970D01*
X262738231Y-41138730D01*
X263025712Y-41586533D01*
X263462676Y-41890235D01*
X263982600Y-42003600D01*
X264135000Y-42003600D01*
X264135000Y-40665000D01*
X264185000Y-40665000D01*
X264185000Y-42003600D01*
X264337400Y-42003600D01*
X264857324Y-41890235D01*
X265294288Y-41586533D01*
X265581769Y-41138730D01*
X265655075Y-40877970D01*
X265550748Y-40665000D01*
X264185000Y-40665000D01*
X264135000Y-40665000D01*
X262769252Y-40665000D01*
X262664925Y-40877970D01*
X259644224Y-40877970D01*
X260652418Y-39869776D01*
X260764167Y-40140230D01*
X261087385Y-40464012D01*
X261509905Y-40639458D01*
X261967404Y-40639857D01*
X262390230Y-40465149D01*
X262714012Y-40141931D01*
X262889458Y-39719411D01*
X262889829Y-39294081D01*
X263077237Y-39106673D01*
X263456073Y-39359802D01*
X263531388Y-39374783D01*
X263462676Y-39389765D01*
X263025712Y-39693467D01*
X262738231Y-40141270D01*
X262664925Y-40402030D01*
X262769252Y-40615000D01*
X264135000Y-40615000D01*
X264135000Y-40595000D01*
X264185000Y-40595000D01*
X264185000Y-40615000D01*
X265550748Y-40615000D01*
X265655075Y-40402030D01*
X265581769Y-40141270D01*
X265294288Y-39693467D01*
X264857324Y-39389765D01*
X264788612Y-39374783D01*
X264863927Y-39359802D01*
X265306311Y-39064211D01*
X265601902Y-38621827D01*
X265705700Y-38100000D01*
X265601902Y-37578173D01*
X265306311Y-37135789D01*
X264863927Y-36840198D01*
X264812658Y-36830000D01*
X264863927Y-36819802D01*
X265306311Y-36524211D01*
X265601902Y-36081827D01*
X265705700Y-35560000D01*
X265601902Y-35038173D01*
X265306311Y-34595789D01*
X264863927Y-34300198D01*
X264812658Y-34290000D01*
X264863927Y-34279802D01*
X265306311Y-33984211D01*
X265601902Y-33541827D01*
X265705700Y-33020000D01*
X265601902Y-32498173D01*
X265306311Y-32055789D01*
X265003406Y-31853395D01*
X265176000Y-31853395D01*
X265361289Y-31818531D01*
X265531465Y-31709025D01*
X265645630Y-31541939D01*
X265685795Y-31343600D01*
X265685795Y-29616400D01*
X265650931Y-29431111D01*
X265541425Y-29260935D01*
X265374339Y-29146770D01*
X265176000Y-29106605D01*
X263144000Y-29106605D01*
X262958711Y-29141469D01*
X262788535Y-29250975D01*
X262674370Y-29418061D01*
X262661827Y-29480000D01*
X243160511Y-29480000D01*
X242799753Y-29330200D01*
X242342254Y-29329801D01*
X241978744Y-29480000D01*
X215220511Y-29480000D01*
X214859753Y-29330200D01*
X214402254Y-29329801D01*
X214038744Y-29480000D01*
X187280511Y-29480000D01*
X186919753Y-29330200D01*
X186462254Y-29329801D01*
X186098744Y-29480000D01*
X159340511Y-29480000D01*
X158979753Y-29330200D01*
X158522254Y-29329801D01*
X158158744Y-29480000D01*
X153900130Y-29480000D01*
X153890931Y-29431111D01*
X153781425Y-29260935D01*
X153614339Y-29146770D01*
X153416000Y-29106605D01*
X151384000Y-29106605D01*
X151198711Y-29141469D01*
X151028535Y-29250975D01*
X150914370Y-29418061D01*
X150874205Y-29616400D01*
X150874205Y-31343600D01*
X150909069Y-31528889D01*
X151018575Y-31699065D01*
X151185661Y-31813230D01*
X151384000Y-31853395D01*
X151556594Y-31853395D01*
X151253689Y-32055789D01*
X150958098Y-32498173D01*
X150854300Y-33020000D01*
X150435000Y-33020000D01*
X150435000Y-28515000D01*
X266125000Y-28515000D01*
X266125000Y-60385000D01*
M02*
