G04 #@! TF.FileFunction,Copper,L2,Bot,Signal*
%FSLAX46Y46*%
G04 Gerber Fmt 4.6, Leading zero omitted, Abs format (unit mm)*
G04 Created by KiCad (PCBNEW 4.0.0-rc2-stable) date Tue 17 Nov 2015 13:54:05 BRT*
%MOMM*%
G01*
G04 APERTURE LIST*
%ADD10C,0.100000*%
%ADD11R,1.727200X1.727200*%
%ADD12O,1.727200X1.727200*%
%ADD13R,1.727200X2.032000*%
%ADD14O,1.727200X2.032000*%
%ADD15R,2.032000X1.727200*%
%ADD16O,2.032000X1.727200*%
%ADD17R,2.032000X2.032000*%
%ADD18O,2.032000X2.032000*%
%ADD19C,1.300000*%
%ADD20C,1.000000*%
%ADD21C,0.350000*%
G04 APERTURE END LIST*
D10*
D11*
X157480000Y-53340000D03*
D12*
X157480000Y-55880000D03*
X160020000Y-53340000D03*
X160020000Y-55880000D03*
X162560000Y-53340000D03*
X162560000Y-55880000D03*
X165100000Y-53340000D03*
X165100000Y-55880000D03*
X167640000Y-53340000D03*
X167640000Y-55880000D03*
X170180000Y-53340000D03*
X170180000Y-55880000D03*
X172720000Y-53340000D03*
X172720000Y-55880000D03*
X175260000Y-53340000D03*
X175260000Y-55880000D03*
D13*
X157480000Y-58420000D03*
D14*
X160020000Y-58420000D03*
X162560000Y-58420000D03*
X165100000Y-58420000D03*
X167640000Y-58420000D03*
X170180000Y-58420000D03*
X172720000Y-58420000D03*
X175260000Y-58420000D03*
D11*
X185420000Y-53340000D03*
D12*
X185420000Y-55880000D03*
X187960000Y-53340000D03*
X187960000Y-55880000D03*
X190500000Y-53340000D03*
X190500000Y-55880000D03*
X193040000Y-53340000D03*
X193040000Y-55880000D03*
X195580000Y-53340000D03*
X195580000Y-55880000D03*
X198120000Y-53340000D03*
X198120000Y-55880000D03*
X200660000Y-53340000D03*
X200660000Y-55880000D03*
X203200000Y-53340000D03*
X203200000Y-55880000D03*
D13*
X185420000Y-58420000D03*
D14*
X187960000Y-58420000D03*
X190500000Y-58420000D03*
X193040000Y-58420000D03*
X195580000Y-58420000D03*
X198120000Y-58420000D03*
X200660000Y-58420000D03*
X203200000Y-58420000D03*
D15*
X152400000Y-30480000D03*
D16*
X152400000Y-33020000D03*
X152400000Y-35560000D03*
X152400000Y-38100000D03*
X152400000Y-40640000D03*
D11*
X213360000Y-53340000D03*
D12*
X213360000Y-55880000D03*
X215900000Y-53340000D03*
X215900000Y-55880000D03*
X218440000Y-53340000D03*
X218440000Y-55880000D03*
X220980000Y-53340000D03*
X220980000Y-55880000D03*
X223520000Y-53340000D03*
X223520000Y-55880000D03*
X226060000Y-53340000D03*
X226060000Y-55880000D03*
X228600000Y-53340000D03*
X228600000Y-55880000D03*
X231140000Y-53340000D03*
X231140000Y-55880000D03*
D15*
X264160000Y-30480000D03*
D16*
X264160000Y-33020000D03*
X264160000Y-35560000D03*
X264160000Y-38100000D03*
X264160000Y-40640000D03*
D13*
X213360000Y-58420000D03*
D14*
X215900000Y-58420000D03*
X218440000Y-58420000D03*
X220980000Y-58420000D03*
X223520000Y-58420000D03*
X226060000Y-58420000D03*
X228600000Y-58420000D03*
X231140000Y-58420000D03*
D11*
X241300000Y-53340000D03*
D12*
X241300000Y-55880000D03*
X243840000Y-53340000D03*
X243840000Y-55880000D03*
X246380000Y-53340000D03*
X246380000Y-55880000D03*
X248920000Y-53340000D03*
X248920000Y-55880000D03*
X251460000Y-53340000D03*
X251460000Y-55880000D03*
X254000000Y-53340000D03*
X254000000Y-55880000D03*
X256540000Y-53340000D03*
X256540000Y-55880000D03*
X259080000Y-53340000D03*
X259080000Y-55880000D03*
D13*
X241300000Y-58420000D03*
D14*
X243840000Y-58420000D03*
X246380000Y-58420000D03*
X248920000Y-58420000D03*
X251460000Y-58420000D03*
X254000000Y-58420000D03*
X256540000Y-58420000D03*
X259080000Y-58420000D03*
D17*
X264160000Y-55880000D03*
D18*
X264160000Y-53340000D03*
D19*
X242570000Y-30480000D03*
X242570000Y-39370000D03*
X214630000Y-30480000D03*
X214630000Y-39370000D03*
X186690000Y-30480000D03*
X186690000Y-39370000D03*
X158750000Y-30480000D03*
X158750000Y-39370000D03*
X259080000Y-36830000D03*
X261739658Y-39489658D03*
X193040000Y-31980010D03*
X193040000Y-36830000D03*
X220980000Y-31980010D03*
X220980000Y-36830000D03*
X248920000Y-31980010D03*
X248920000Y-36830000D03*
D20*
X242570000Y-39370000D02*
X242570000Y-30480000D01*
X214630000Y-39370000D02*
X214630000Y-30480000D01*
X186690000Y-39370000D02*
X186690000Y-30480000D01*
X158750000Y-39370000D02*
X158750000Y-30480000D01*
D21*
X261739658Y-39489658D02*
X259080000Y-36830000D01*
X193040000Y-36830000D02*
X193040000Y-31980010D01*
X220980000Y-36830000D02*
X220980000Y-31980010D01*
X248920000Y-36830000D02*
X248920000Y-31980010D01*
M02*
